<?xml version="1.0" encoding="UTF-8" standalone="no"?>
<!DOCTYPE svg PUBLIC "-//W3C//DTD SVG 1.1//EN"
 "http://www.w3.org/Graphics/SVG/1.1/DTD/svg11.dtd">
<!-- Generated by graphviz version 14.0.2 (20251019.1705)
 -->
<!-- Title: Automated Release Workflow (Git Flow + Commitizen) Pages: 1 -->
<svg width="2682pt" height="340pt"
 viewBox="0.00 0.00 2682.00 340.00" xmlns="http://www.w3.org/2000/svg" xmlns:xlink="http://www.w3.org/1999/xlink">
<g id="graph0" class="graph" transform="scale(1 1) rotate(0) translate(36 303.75)">
<title>Automated Release Workflow (Git Flow + Commitizen)</title>
<polygon fill="white" stroke="none" points="-36,36 -36,-303.75 2645.6,-303.75 2645.6,36 -36,36"/>
<text xml:space="preserve" text-anchor="middle" x="1304.8" y="-5.35" font-family="Sans-Serif" font-size="12.00" fill="#2d3436">Automated Release Workflow (Git Flow + Commitizen)</text>
<g id="clust1" class="cluster">
<title>cluster_feature/* Branch</title>
<path fill="#e5f5fd" stroke="#aeb6be" d="M20,-28.75C20,-28.75 577.2,-28.75 577.2,-28.75 583.2,-28.75 589.2,-34.75 589.2,-40.75 589.2,-40.75 589.2,-247.75 589.2,-247.75 589.2,-253.75 583.2,-259.75 577.2,-259.75 577.2,-259.75 20,-259.75 20,-259.75 14,-259.75 8,-253.75 8,-247.75 8,-247.75 8,-40.75 8,-40.75 8,-34.75 14,-28.75 20,-28.75"/>
<text xml:space="preserve" text-anchor="middle" x="58.75" y="-244.35" font-family="Sans-Serif" font-size="12.00" fill="#2d3436">feature/* Branch</text>
</g>
<g id="clust2" class="cluster">
<title>cluster_develop Branch</title>
<path fill="#e5f5fd" stroke="#aeb6be" d="M639.2,-42.75C639.2,-42.75 1041.6,-42.75 1041.6,-42.75 1047.6,-42.75 1053.6,-48.75 1053.6,-54.75 1053.6,-54.75 1053.6,-233.75 1053.6,-233.75 1053.6,-239.75 1047.6,-245.75 1041.6,-245.75 1041.6,-245.75 639.2,-245.75 639.2,-245.75 633.2,-245.75 627.2,-239.75 627.2,-233.75 627.2,-233.75 627.2,-54.75 627.2,-54.75 627.2,-48.75 633.2,-42.75 639.2,-42.75"/>
<text xml:space="preserve" text-anchor="middle" x="677.2" y="-230.35" font-family="Sans-Serif" font-size="12.00" fill="#2d3436">develop Branch</text>
</g>
<g id="clust3" class="cluster">
<title>cluster_release/* Branch</title>
<path fill="#e5f5fd" stroke="#aeb6be" d="M1103.6,-28.75C1103.6,-28.75 1660.8,-28.75 1660.8,-28.75 1666.8,-28.75 1672.8,-34.75 1672.8,-40.75 1672.8,-40.75 1672.8,-247.75 1672.8,-247.75 1672.8,-253.75 1666.8,-259.75 1660.8,-259.75 1660.8,-259.75 1103.6,-259.75 1103.6,-259.75 1097.6,-259.75 1091.6,-253.75 1091.6,-247.75 1091.6,-247.75 1091.6,-40.75 1091.6,-40.75 1091.6,-34.75 1097.6,-28.75 1103.6,-28.75"/>
<text xml:space="preserve" text-anchor="middle" x="1143.85" y="-244.35" font-family="Sans-Serif" font-size="12.00" fill="#2d3436">release/* Branch</text>
</g>
<g id="clust4" class="cluster">
<title>cluster_main Branch</title>
<path fill="#e5f5fd" stroke="#aeb6be" d="M1722.8,-42.75C1722.8,-42.75 2280,-42.75 2280,-42.75 2286,-42.75 2292,-48.75 2292,-54.75 2292,-54.75 2292,-233.75 2292,-233.75 2292,-239.75 2286,-245.75 2280,-245.75 2280,-245.75 1722.8,-245.75 1722.8,-245.75 1716.8,-245.75 1710.8,-239.75 1710.8,-233.75 1710.8,-233.75 1710.8,-54.75 1710.8,-54.75 1710.8,-48.75 1716.8,-42.75 1722.8,-42.75"/>
<text xml:space="preserve" text-anchor="middle" x="1752.55" y="-230.35" font-family="Sans-Serif" font-size="12.00" fill="#2d3436">main Branch</text>
</g>
<g id="clust5" class="cluster">
<title>cluster_Back to develop</title>
<path fill="#e5f5fd" stroke="#aeb6be" d="M2342,-42.75C2342,-42.75 2589.6,-42.75 2589.6,-42.75 2595.6,-42.75 2601.6,-48.75 2601.6,-54.75 2601.6,-54.75 2601.6,-233.75 2601.6,-233.75 2601.6,-239.75 2595.6,-245.75 2589.6,-245.75 2589.6,-245.75 2342,-245.75 2342,-245.75 2336,-245.75 2330,-239.75 2330,-233.75 2330,-233.75 2330,-54.75 2330,-54.75 2330,-48.75 2336,-42.75 2342,-42.75"/>
<text xml:space="preserve" text-anchor="middle" x="2380.75" y="-230.35" font-family="Sans-Serif" font-size="12.00" fill="#2d3436">Back to develop</text>
</g>
<!-- b52140d995d64f7a99d289fa70f7ca7d -->
<g id="node1" class="node">
<title>b52140d995d64f7a99d289fa70f7ca7d</title>
<image xlink:href="/Users/colin/.local/share/uv/default-env/lib/python3.12/site-packages/resources/onprem/vcs/github.png" width="100.8px" height="100.8px" preserveAspectRatio="xMinYMin meet" x="16" y="-184.15"/>
<text xml:space="preserve" text-anchor="middle" x="66.4" y="-63.95" font-family="Sans-Serif" font-size="10.00" fill="#2d3436">git flow</text>
<text xml:space="preserve" text-anchor="middle" x="66.4" y="-52.7" font-family="Sans-Serif" font-size="10.00" fill="#2d3436">feature start</text>
</g>
<!-- 5c41fede98df49a58cb0830ed7dfecd8 -->
<g id="node2" class="node">
<title>5c41fede98df49a58cb0830ed7dfecd8</title>
<image xlink:href="/Users/colin/.local/share/uv/default-env/lib/python3.12/site-packages/resources/generic/blank/blank.png" width="100.8px" height="100.8px" preserveAspectRatio="xMinYMin meet" x="170.8" y="-184.15"/>
<text xml:space="preserve" text-anchor="middle" x="221.2" y="-67.1" font-family="Sans-Serif" font-size="10.00" fill="#2d3436">Write Code</text>
</g>
<!-- b52140d995d64f7a99d289fa70f7ca7d&#45;&gt;5c41fede98df49a58cb0830ed7dfecd8 -->
<g id="edge1" class="edge">
<title>b52140d995d64f7a99d289fa70f7ca7d&#45;&gt;5c41fede98df49a58cb0830ed7dfecd8</title>
<path fill="none" stroke="#7b8894" d="M116.66,-133.75C116.66,-133.75 159.41,-133.75 159.41,-133.75"/>
<polygon fill="#7b8894" stroke="#7b8894" points="159.41,-137.25 169.41,-133.75 159.41,-130.25 159.41,-137.25"/>
</g>
<!-- 5af2b7d029bd40209c798fc1bdaa5a97 -->
<g id="node3" class="node">
<title>5af2b7d029bd40209c798fc1bdaa5a97</title>
<image xlink:href="/Users/colin/.local/share/uv/default-env/lib/python3.12/site-packages/resources/generic/blank/blank.png" width="100.8px" height="100.8px" preserveAspectRatio="xMinYMin meet" x="325.6" y="-184.15"/>
<text xml:space="preserve" text-anchor="middle" x="376" y="-60.8" font-family="Sans-Serif" font-size="10.00" fill="#2d3436">git cz</text>
<text xml:space="preserve" text-anchor="middle" x="376" y="-49.55" font-family="Sans-Serif" font-size="10.00" fill="#2d3436">(conventional</text>
<text xml:space="preserve" text-anchor="middle" x="376" y="-38.3" font-family="Sans-Serif" font-size="10.00" fill="#2d3436">commits)</text>
</g>
<!-- 5c41fede98df49a58cb0830ed7dfecd8&#45;&gt;5af2b7d029bd40209c798fc1bdaa5a97 -->
<g id="edge2" class="edge">
<title>5c41fede98df49a58cb0830ed7dfecd8&#45;&gt;5af2b7d029bd40209c798fc1bdaa5a97</title>
<path fill="none" stroke="#7b8894" d="M271.46,-133.75C271.46,-133.75 314.21,-133.75 314.21,-133.75"/>
<polygon fill="#7b8894" stroke="#7b8894" points="314.21,-137.25 324.21,-133.75 314.21,-130.25 314.21,-137.25"/>
</g>
<!-- 2352e23bef504901a1de0da90fc933fc -->
<g id="node4" class="node">
<title>2352e23bef504901a1de0da90fc933fc</title>
<image xlink:href="/Users/colin/.local/share/uv/default-env/lib/python3.12/site-packages/resources/onprem/vcs/github.png" width="100.8px" height="100.8px" preserveAspectRatio="xMinYMin meet" x="480.4" y="-184.15"/>
<text xml:space="preserve" text-anchor="middle" x="530.8" y="-63.95" font-family="Sans-Serif" font-size="10.00" fill="#2d3436">Push &amp;</text>
<text xml:space="preserve" text-anchor="middle" x="530.8" y="-52.7" font-family="Sans-Serif" font-size="10.00" fill="#2d3436">Create PR</text>
</g>
<!-- 5af2b7d029bd40209c798fc1bdaa5a97&#45;&gt;2352e23bef504901a1de0da90fc933fc -->
<g id="edge3" class="edge">
<title>5af2b7d029bd40209c798fc1bdaa5a97&#45;&gt;2352e23bef504901a1de0da90fc933fc</title>
<path fill="none" stroke="#7b8894" d="M426.26,-133.75C426.26,-133.75 469.01,-133.75 469.01,-133.75"/>
<polygon fill="#7b8894" stroke="#7b8894" points="469.01,-137.25 479.01,-133.75 469.01,-130.25 469.01,-137.25"/>
</g>
<!-- 5035e669cb3e4525a5844534bf1e9187 -->
<g id="node5" class="node">
<title>5035e669cb3e4525a5844534bf1e9187</title>
<image xlink:href="/Users/colin/.local/share/uv/default-env/lib/python3.12/site-packages/resources/onprem/ci/github-actions.png" width="100.8px" height="100.8px" preserveAspectRatio="xMinYMin meet" x="635.2" y="-184.15"/>
<text xml:space="preserve" text-anchor="middle" x="685.6" y="-67.1" font-family="Sans-Serif" font-size="10.00" fill="#2d3436">CI Tests</text>
</g>
<!-- 2352e23bef504901a1de0da90fc933fc&#45;&gt;5035e669cb3e4525a5844534bf1e9187 -->
<g id="edge4" class="edge">
<title>2352e23bef504901a1de0da90fc933fc&#45;&gt;5035e669cb3e4525a5844534bf1e9187</title>
<path fill="none" stroke="#7b8894" d="M581.06,-133.75C581.06,-133.75 623.81,-133.75 623.81,-133.75"/>
<polygon fill="#7b8894" stroke="#7b8894" points="623.81,-137.25 633.81,-133.75 623.81,-130.25 623.81,-137.25"/>
</g>
<!-- 05cf19e221f344c28f9363e1cde1a68f -->
<g id="node6" class="node">
<title>05cf19e221f344c28f9363e1cde1a68f</title>
<image xlink:href="/Users/colin/.local/share/uv/default-env/lib/python3.12/site-packages/resources/onprem/vcs/github.png" width="100.8px" height="100.8px" preserveAspectRatio="xMinYMin meet" x="790" y="-184.15"/>
<text xml:space="preserve" text-anchor="middle" x="840.4" y="-63.95" font-family="Sans-Serif" font-size="10.00" fill="#2d3436">Merge</text>
<text xml:space="preserve" text-anchor="middle" x="840.4" y="-52.7" font-family="Sans-Serif" font-size="10.00" fill="#2d3436">Feature</text>
</g>
<!-- 5035e669cb3e4525a5844534bf1e9187&#45;&gt;05cf19e221f344c28f9363e1cde1a68f -->
<g id="edge5" class="edge">
<title>5035e669cb3e4525a5844534bf1e9187&#45;&gt;05cf19e221f344c28f9363e1cde1a68f</title>
<path fill="none" stroke="#7b8894" d="M735.86,-133.75C735.86,-133.75 778.61,-133.75 778.61,-133.75"/>
<polygon fill="#7b8894" stroke="#7b8894" points="778.61,-137.25 788.61,-133.75 778.61,-130.25 778.61,-137.25"/>
</g>
<!-- 7bad477aebaa467ea90d540868666ad6 -->
<g id="node7" class="node">
<title>7bad477aebaa467ea90d540868666ad6</title>
<image xlink:href="/Users/colin/.local/share/uv/default-env/lib/python3.12/site-packages/resources/generic/blank/blank.png" width="100.8px" height="100.8px" preserveAspectRatio="xMinYMin meet" x="944.8" y="-184.15"/>
<text xml:space="preserve" text-anchor="middle" x="995.2" y="-63.95" font-family="Sans-Serif" font-size="10.00" fill="#2d3436">Ready for</text>
<text xml:space="preserve" text-anchor="middle" x="995.2" y="-52.7" font-family="Sans-Serif" font-size="10.00" fill="#2d3436">Release</text>
</g>
<!-- 05cf19e221f344c28f9363e1cde1a68f&#45;&gt;7bad477aebaa467ea90d540868666ad6 -->
<g id="edge6" class="edge">
<title>05cf19e221f344c28f9363e1cde1a68f&#45;&gt;7bad477aebaa467ea90d540868666ad6</title>
<path fill="none" stroke="#7b8894" d="M890.66,-133.75C890.66,-133.75 933.41,-133.75 933.41,-133.75"/>
<polygon fill="#7b8894" stroke="#7b8894" points="933.41,-137.25 943.41,-133.75 933.41,-130.25 933.41,-137.25"/>
</g>
<!-- 520187bfdaa24929816033ce992d01c7 -->
<g id="node8" class="node">
<title>520187bfdaa24929816033ce992d01c7</title>
<image xlink:href="/Users/colin/.local/share/uv/default-env/lib/python3.12/site-packages/resources/onprem/vcs/github.png" width="100.8px" height="100.8px" preserveAspectRatio="xMinYMin meet" x="1099.6" y="-184.15"/>
<text xml:space="preserve" text-anchor="middle" x="1150" y="-63.95" font-family="Sans-Serif" font-size="10.00" fill="#2d3436">git flow</text>
<text xml:space="preserve" text-anchor="middle" x="1150" y="-52.7" font-family="Sans-Serif" font-size="10.00" fill="#2d3436">release start</text>
</g>
<!-- 7bad477aebaa467ea90d540868666ad6&#45;&gt;520187bfdaa24929816033ce992d01c7 -->
<g id="edge7" class="edge">
<title>7bad477aebaa467ea90d540868666ad6&#45;&gt;520187bfdaa24929816033ce992d01c7</title>
<path fill="none" stroke="#7b8894" d="M1045.46,-133.75C1045.46,-133.75 1088.21,-133.75 1088.21,-133.75"/>
<polygon fill="#7b8894" stroke="#7b8894" points="1088.21,-137.25 1098.21,-133.75 1088.21,-130.25 1088.21,-137.25"/>
</g>
<!-- 07921a3ecbc24c14bf4bc04b889fe5f2 -->
<g id="node9" class="node">
<title>07921a3ecbc24c14bf4bc04b889fe5f2</title>
<image xlink:href="/Users/colin/.local/share/uv/default-env/lib/python3.12/site-packages/resources/generic/blank/blank.png" width="100.8px" height="100.8px" preserveAspectRatio="xMinYMin meet" x="1254.4" y="-184.15"/>
<text xml:space="preserve" text-anchor="middle" x="1304.8" y="-63.95" font-family="Sans-Serif" font-size="10.00" fill="#2d3436">cz bump</text>
<text xml:space="preserve" text-anchor="middle" x="1304.8" y="-52.7" font-family="Sans-Serif" font-size="10.00" fill="#2d3436">(auto version)</text>
</g>
<!-- 520187bfdaa24929816033ce992d01c7&#45;&gt;07921a3ecbc24c14bf4bc04b889fe5f2 -->
<g id="edge8" class="edge">
<title>520187bfdaa24929816033ce992d01c7&#45;&gt;07921a3ecbc24c14bf4bc04b889fe5f2</title>
<path fill="none" stroke="#7b8894" d="M1200.26,-133.75C1200.26,-133.75 1243.01,-133.75 1243.01,-133.75"/>
<polygon fill="#7b8894" stroke="#7b8894" points="1243.01,-137.25 1253.01,-133.75 1243.01,-130.25 1243.01,-137.25"/>
</g>
<!-- 624f757f8cf94e3cad89b27ad80a96b4 -->
<g id="node10" class="node">
<title>624f757f8cf94e3cad89b27ad80a96b4</title>
<image xlink:href="/Users/colin/.local/share/uv/default-env/lib/python3.12/site-packages/resources/generic/blank/blank.png" width="100.8px" height="100.8px" preserveAspectRatio="xMinYMin meet" x="1409.2" y="-184.15"/>
<text xml:space="preserve" text-anchor="middle" x="1459.6" y="-60.8" font-family="Sans-Serif" font-size="10.00" fill="#2d3436">Update</text>
<text xml:space="preserve" text-anchor="middle" x="1459.6" y="-49.55" font-family="Sans-Serif" font-size="10.00" fill="#2d3436">CHANGELOG</text>
<text xml:space="preserve" text-anchor="middle" x="1459.6" y="-38.3" font-family="Sans-Serif" font-size="10.00" fill="#2d3436">&amp; versions</text>
</g>
<!-- 07921a3ecbc24c14bf4bc04b889fe5f2&#45;&gt;624f757f8cf94e3cad89b27ad80a96b4 -->
<g id="edge9" class="edge">
<title>07921a3ecbc24c14bf4bc04b889fe5f2&#45;&gt;624f757f8cf94e3cad89b27ad80a96b4</title>
<path fill="none" stroke="#7b8894" d="M1355.06,-133.75C1355.06,-133.75 1397.81,-133.75 1397.81,-133.75"/>
<polygon fill="#7b8894" stroke="#7b8894" points="1397.81,-137.25 1407.81,-133.75 1397.81,-130.25 1397.81,-137.25"/>
</g>
<!-- 52919077faa942b3b36136a07af7e246 -->
<g id="node11" class="node">
<title>52919077faa942b3b36136a07af7e246</title>
<image xlink:href="/Users/colin/.local/share/uv/default-env/lib/python3.12/site-packages/resources/onprem/vcs/github.png" width="100.8px" height="100.8px" preserveAspectRatio="xMinYMin meet" x="1564" y="-184.15"/>
<text xml:space="preserve" text-anchor="middle" x="1614.4" y="-63.95" font-family="Sans-Serif" font-size="10.00" fill="#2d3436">Commit &amp;</text>
<text xml:space="preserve" text-anchor="middle" x="1614.4" y="-52.7" font-family="Sans-Serif" font-size="10.00" fill="#2d3436">Tag v*.*.*</text>
</g>
<!-- 624f757f8cf94e3cad89b27ad80a96b4&#45;&gt;52919077faa942b3b36136a07af7e246 -->
<g id="edge10" class="edge">
<title>624f757f8cf94e3cad89b27ad80a96b4&#45;&gt;52919077faa942b3b36136a07af7e246</title>
<path fill="none" stroke="#7b8894" d="M1509.86,-133.75C1509.86,-133.75 1552.61,-133.75 1552.61,-133.75"/>
<polygon fill="#7b8894" stroke="#7b8894" points="1552.61,-137.25 1562.61,-133.75 1552.61,-130.25 1552.61,-137.25"/>
</g>
<!-- f909b82e9e904490864ddb283846e8f6 -->
<g id="node12" class="node">
<title>f909b82e9e904490864ddb283846e8f6</title>
<image xlink:href="/Users/colin/.local/share/uv/default-env/lib/python3.12/site-packages/resources/onprem/vcs/github.png" width="100.8px" height="100.8px" preserveAspectRatio="xMinYMin meet" x="1718.8" y="-184.15"/>
<text xml:space="preserve" text-anchor="middle" x="1769.2" y="-63.95" font-family="Sans-Serif" font-size="10.00" fill="#2d3436">git flow</text>
<text xml:space="preserve" text-anchor="middle" x="1769.2" y="-52.7" font-family="Sans-Serif" font-size="10.00" fill="#2d3436">release finish</text>
</g>
<!-- 52919077faa942b3b36136a07af7e246&#45;&gt;f909b82e9e904490864ddb283846e8f6 -->
<g id="edge11" class="edge">
<title>52919077faa942b3b36136a07af7e246&#45;&gt;f909b82e9e904490864ddb283846e8f6</title>
<path fill="none" stroke="#7b8894" d="M1664.66,-133.75C1664.66,-133.75 1707.41,-133.75 1707.41,-133.75"/>
<polygon fill="#7b8894" stroke="#7b8894" points="1707.41,-137.25 1717.41,-133.75 1707.41,-130.25 1707.41,-137.25"/>
</g>
<!-- 78e3ca0693794696b54a03314ab2aea0 -->
<g id="node13" class="node">
<title>78e3ca0693794696b54a03314ab2aea0</title>
<image xlink:href="/Users/colin/.local/share/uv/default-env/lib/python3.12/site-packages/resources/onprem/vcs/github.png" width="100.8px" height="100.8px" preserveAspectRatio="xMinYMin meet" x="1873.6" y="-184.15"/>
<text xml:space="preserve" text-anchor="middle" x="1924" y="-67.1" font-family="Sans-Serif" font-size="10.00" fill="#2d3436">Push Tag</text>
</g>
<!-- f909b82e9e904490864ddb283846e8f6&#45;&gt;78e3ca0693794696b54a03314ab2aea0 -->
<g id="edge12" class="edge">
<title>f909b82e9e904490864ddb283846e8f6&#45;&gt;78e3ca0693794696b54a03314ab2aea0</title>
<path fill="none" stroke="#7b8894" d="M1819.46,-133.75C1819.46,-133.75 1862.21,-133.75 1862.21,-133.75"/>
<polygon fill="#7b8894" stroke="#7b8894" points="1862.21,-137.25 1872.21,-133.75 1862.21,-130.25 1862.21,-137.25"/>
</g>
<!-- a160785ab5f841a5bcd01b1179bebb29 -->
<g id="node14" class="node">
<title>a160785ab5f841a5bcd01b1179bebb29</title>
<image xlink:href="/Users/colin/.local/share/uv/default-env/lib/python3.12/site-packages/resources/onprem/ci/github-actions.png" width="100.8px" height="100.8px" preserveAspectRatio="xMinYMin meet" x="2028.4" y="-184.15"/>
<text xml:space="preserve" text-anchor="middle" x="2078.8" y="-63.95" font-family="Sans-Serif" font-size="10.00" fill="#2d3436">Release</text>
<text xml:space="preserve" text-anchor="middle" x="2078.8" y="-52.7" font-family="Sans-Serif" font-size="10.00" fill="#2d3436">Workflow</text>
</g>
<!-- 78e3ca0693794696b54a03314ab2aea0&#45;&gt;a160785ab5f841a5bcd01b1179bebb29 -->
<g id="edge13" class="edge">
<title>78e3ca0693794696b54a03314ab2aea0&#45;&gt;a160785ab5f841a5bcd01b1179bebb29</title>
<path fill="none" stroke="#7b8894" d="M1974.26,-133.75C1974.26,-133.75 2017.01,-133.75 2017.01,-133.75"/>
<polygon fill="#7b8894" stroke="#7b8894" points="2017.01,-137.25 2027.01,-133.75 2017.01,-130.25 2017.01,-137.25"/>
</g>
<!-- a920581c75a04d53b38014629b6d6779 -->
<g id="node15" class="node">
<title>a920581c75a04d53b38014629b6d6779</title>
<image xlink:href="/Users/colin/.local/share/uv/default-env/lib/python3.12/site-packages/resources/onprem/vcs/github.png" width="100.8px" height="100.8px" preserveAspectRatio="xMinYMin meet" x="2183.2" y="-184.15"/>
<text xml:space="preserve" text-anchor="middle" x="2233.6" y="-63.95" font-family="Sans-Serif" font-size="10.00" fill="#2d3436">GitHub</text>
<text xml:space="preserve" text-anchor="middle" x="2233.6" y="-52.7" font-family="Sans-Serif" font-size="10.00" fill="#2d3436">Release</text>
</g>
<!-- a160785ab5f841a5bcd01b1179bebb29&#45;&gt;a920581c75a04d53b38014629b6d6779 -->
<g id="edge14" class="edge">
<title>a160785ab5f841a5bcd01b1179bebb29&#45;&gt;a920581c75a04d53b38014629b6d6779</title>
<path fill="none" stroke="#7b8894" d="M2129.06,-133.75C2129.06,-133.75 2171.81,-133.75 2171.81,-133.75"/>
<polygon fill="#7b8894" stroke="#7b8894" points="2171.81,-137.25 2181.81,-133.75 2171.81,-130.25 2171.81,-137.25"/>
</g>
<!-- d6c8a24c425e4106947a968d884fb60c -->
<g id="node16" class="node">
<title>d6c8a24c425e4106947a968d884fb60c</title>
<image xlink:href="/Users/colin/.local/share/uv/default-env/lib/python3.12/site-packages/resources/onprem/vcs/github.png" width="100.8px" height="100.8px" preserveAspectRatio="xMinYMin meet" x="2338" y="-184.15"/>
<text xml:space="preserve" text-anchor="middle" x="2388.4" y="-63.95" font-family="Sans-Serif" font-size="10.00" fill="#2d3436">Auto&#45;merge</text>
<text xml:space="preserve" text-anchor="middle" x="2388.4" y="-52.7" font-family="Sans-Serif" font-size="10.00" fill="#2d3436">to develop</text>
</g>
<!-- a920581c75a04d53b38014629b6d6779&#45;&gt;d6c8a24c425e4106947a968d884fb60c -->
<g id="edge15" class="edge">
<title>a920581c75a04d53b38014629b6d6779&#45;&gt;d6c8a24c425e4106947a968d884fb60c</title>
<path fill="none" stroke="#7b8894" d="M2283.86,-133.75C2283.86,-133.75 2326.61,-133.75 2326.61,-133.75"/>
<polygon fill="#7b8894" stroke="#7b8894" points="2326.61,-137.25 2336.61,-133.75 2326.61,-130.25 2326.61,-137.25"/>
</g>
<!-- 1c16b386b6a943548b843aa32913833e -->
<g id="node17" class="node">
<title>1c16b386b6a943548b843aa32913833e</title>
<image xlink:href="/Users/colin/.local/share/uv/default-env/lib/python3.12/site-packages/resources/generic/blank/blank.png" width="100.8px" height="100.8px" preserveAspectRatio="xMinYMin meet" x="2492.8" y="-184.15"/>
<text xml:space="preserve" text-anchor="middle" x="2543.2" y="-63.95" font-family="Sans-Serif" font-size="10.00" fill="#2d3436">Release</text>
<text xml:space="preserve" text-anchor="middle" x="2543.2" y="-52.7" font-family="Sans-Serif" font-size="10.00" fill="#2d3436">Complete</text>
</g>
<!-- d6c8a24c425e4106947a968d884fb60c&#45;&gt;1c16b386b6a943548b843aa32913833e -->
<g id="edge16" class="edge">
<title>d6c8a24c425e4106947a968d884fb60c&#45;&gt;1c16b386b6a943548b843aa32913833e</title>
<path fill="none" stroke="#7b8894" d="M2438.66,-133.75C2438.66,-133.75 2481.41,-133.75 2481.41,-133.75"/>
<polygon fill="#7b8894" stroke="#7b8894" points="2481.41,-137.25 2491.41,-133.75 2481.41,-130.25 2481.41,-137.25"/>
</g>
</g>
</svg>
