<?xml version="1.0" encoding="UTF-8" standalone="no"?>
<!DOCTYPE svg PUBLIC "-//W3C//DTD SVG 1.1//EN"
 "http://www.w3.org/Graphics/SVG/1.1/DTD/svg11.dtd">
<!-- Generated by graphviz version 14.0.2 (20251019.1705)
 -->
<!-- Title: CI Workflow Pages: 1 -->
<svg width="220pt" height="1791pt"
 viewBox="0.00 0.00 220.00 1791.00" xmlns="http://www.w3.org/2000/svg" xmlns:xlink="http://www.w3.org/1999/xlink">
<g id="graph0" class="graph" transform="scale(1 1) rotate(0) translate(36 1754.75)">
<title>CI Workflow</title>
<polygon fill="white" stroke="none" points="-36,36 -36,-1754.75 184,-1754.75 184,36 -36,36"/>
<text xml:space="preserve" text-anchor="middle" x="74" y="-5.35" font-family="Sans-Serif" font-size="12.00" fill="#2d3436">CI Workflow</text>
<g id="clust1" class="cluster">
<title>cluster_CI Pipeline</title>
<path fill="#e5f5fd" stroke="#aeb6be" d="M20,-28.75C20,-28.75 128,-28.75 128,-28.75 134,-28.75 140,-34.75 140,-40.75 140,-40.75 140,-1515.9 140,-1515.9 140,-1521.9 134,-1527.9 128,-1527.9 128,-1527.9 20,-1527.9 20,-1527.9 14,-1527.9 8,-1521.9 8,-1515.9 8,-1515.9 8,-40.75 8,-40.75 8,-34.75 14,-28.75 20,-28.75"/>
<text xml:space="preserve" text-anchor="middle" x="45.62" y="-1512.5" font-family="Sans-Serif" font-size="12.00" fill="#2d3436">CI Pipeline</text>
</g>
<g id="clust2" class="cluster">
<title>cluster_Build &amp; Test Steps</title>
<path fill="#ebf3e7" stroke="#aeb6be" d="M28,-36.75C28,-36.75 120,-36.75 120,-36.75 126,-36.75 132,-42.75 132,-48.75 132,-48.75 132,-1325.1 132,-1325.1 132,-1331.1 126,-1337.1 120,-1337.1 120,-1337.1 28,-1337.1 28,-1337.1 22,-1337.1 16,-1331.1 16,-1325.1 16,-1325.1 16,-48.75 16,-48.75 16,-42.75 22,-36.75 28,-36.75"/>
<text xml:space="preserve" text-anchor="middle" x="72.75" y="-1321.7" font-family="Sans-Serif" font-size="12.00" fill="#2d3436">Build &amp; Test Steps</text>
</g>
<!-- 7b2de72c414e43538415e6a547c70816 -->
<g id="node1" class="node">
<title>7b2de72c414e43538415e6a547c70816</title>
<image xlink:href="/Users/colin/.local/share/uv/default-env/lib/python3.12/site-packages/resources/onprem/vcs/github.png" width="100.8px" height="100.8px" preserveAspectRatio="xMinYMin meet" x="23.6" y="-1686.35"/>
<text xml:space="preserve" text-anchor="middle" x="74" y="-1566.15" font-family="Sans-Serif" font-size="10.00" fill="#2d3436">Push/PR to</text>
<text xml:space="preserve" text-anchor="middle" x="74" y="-1554.9" font-family="Sans-Serif" font-size="10.00" fill="#2d3436">main/develop</text>
</g>
<!-- d2f1263d321348da9a123232e15d9476 -->
<g id="node2" class="node">
<title>d2f1263d321348da9a123232e15d9476</title>
<image xlink:href="/Users/colin/.local/share/uv/default-env/lib/python3.12/site-packages/resources/onprem/ci/github-actions.png" width="100.8px" height="100.8px" preserveAspectRatio="xMinYMin meet" x="23.6" y="-1481.15"/>
<text xml:space="preserve" text-anchor="middle" x="74" y="-1364.1" font-family="Sans-Serif" font-size="10.00" fill="#2d3436">CI Job</text>
</g>
<!-- 7b2de72c414e43538415e6a547c70816&#45;&gt;d2f1263d321348da9a123232e15d9476 -->
<g id="edge1" class="edge">
<title>7b2de72c414e43538415e6a547c70816&#45;&gt;d2f1263d321348da9a123232e15d9476</title>
<path fill="none" stroke="#7b8894" d="M74,-1553.37C74,-1553.37 74,-1510.54 74,-1510.54"/>
<polygon fill="#7b8894" stroke="#7b8894" points="77.5,-1510.54 74,-1500.54 70.5,-1510.54 77.5,-1510.54"/>
</g>
<!-- 0285ff13f9a14c0b8ced7d1c004820d2 -->
<g id="node3" class="node">
<title>0285ff13f9a14c0b8ced7d1c004820d2</title>
<image xlink:href="/Users/colin/.local/share/uv/default-env/lib/python3.12/site-packages/resources/generic/blank/blank.png" width="100.8px" height="100.8px" preserveAspectRatio="xMinYMin meet" x="23.6" y="-1275.95"/>
<text xml:space="preserve" text-anchor="middle" x="74" y="-1155.75" font-family="Sans-Serif" font-size="10.00" fill="#2d3436">Checkout</text>
<text xml:space="preserve" text-anchor="middle" x="74" y="-1144.5" font-family="Sans-Serif" font-size="10.00" fill="#2d3436">Code</text>
</g>
<!-- d2f1263d321348da9a123232e15d9476&#45;&gt;0285ff13f9a14c0b8ced7d1c004820d2 -->
<g id="edge2" class="edge">
<title>d2f1263d321348da9a123232e15d9476&#45;&gt;0285ff13f9a14c0b8ced7d1c004820d2</title>
<path fill="none" stroke="#7b8894" d="M74,-1362.42C74,-1362.42 74,-1319.71 74,-1319.71"/>
<polygon fill="#7b8894" stroke="#7b8894" points="77.5,-1319.71 74,-1309.71 70.5,-1319.71 77.5,-1319.71"/>
</g>
<!-- 5774d75ef720431d9041e77c10be1e54 -->
<g id="node4" class="node">
<title>5774d75ef720431d9041e77c10be1e54</title>
<image xlink:href="/Users/colin/.local/share/uv/default-env/lib/python3.12/site-packages/resources/generic/blank/blank.png" width="100.8px" height="100.8px" preserveAspectRatio="xMinYMin meet" x="23.6" y="-1056.35"/>
<text xml:space="preserve" text-anchor="middle" x="74" y="-936.15" font-family="Sans-Serif" font-size="10.00" fill="#2d3436">Setup</text>
<text xml:space="preserve" text-anchor="middle" x="74" y="-924.9" font-family="Sans-Serif" font-size="10.00" fill="#2d3436">Node.js 20</text>
</g>
<!-- 0285ff13f9a14c0b8ced7d1c004820d2&#45;&gt;5774d75ef720431d9041e77c10be1e54 -->
<g id="edge3" class="edge">
<title>0285ff13f9a14c0b8ced7d1c004820d2&#45;&gt;5774d75ef720431d9041e77c10be1e54</title>
<path fill="none" stroke="#7b8894" d="M74,-1142.84C74,-1142.84 74,-1100.1 74,-1100.1"/>
<polygon fill="#7b8894" stroke="#7b8894" points="77.5,-1100.1 74,-1090.1 70.5,-1100.1 77.5,-1100.1"/>
</g>
<!-- 95ebbc21c3044811937b90a6372c0046 -->
<g id="node5" class="node">
<title>95ebbc21c3044811937b90a6372c0046</title>
<image xlink:href="/Users/colin/.local/share/uv/default-env/lib/python3.12/site-packages/resources/generic/blank/blank.png" width="100.8px" height="100.8px" preserveAspectRatio="xMinYMin meet" x="23.6" y="-836.75"/>
<text xml:space="preserve" text-anchor="middle" x="74" y="-716.55" font-family="Sans-Serif" font-size="10.00" fill="#2d3436">Install</text>
<text xml:space="preserve" text-anchor="middle" x="74" y="-705.3" font-family="Sans-Serif" font-size="10.00" fill="#2d3436">Dependencies</text>
</g>
<!-- 5774d75ef720431d9041e77c10be1e54&#45;&gt;95ebbc21c3044811937b90a6372c0046 -->
<g id="edge4" class="edge">
<title>5774d75ef720431d9041e77c10be1e54&#45;&gt;95ebbc21c3044811937b90a6372c0046</title>
<path fill="none" stroke="#7b8894" d="M74,-923.24C74,-923.24 74,-880.5 74,-880.5"/>
<polygon fill="#7b8894" stroke="#7b8894" points="77.5,-880.5 74,-870.5 70.5,-880.5 77.5,-880.5"/>
</g>
<!-- 99d2018a77094e1691ff5be42250e88b -->
<g id="node6" class="node">
<title>99d2018a77094e1691ff5be42250e88b</title>
<image xlink:href="/Users/colin/.local/share/uv/default-env/lib/python3.12/site-packages/resources/generic/blank/blank.png" width="100.8px" height="100.8px" preserveAspectRatio="xMinYMin meet" x="23.6" y="-617.15"/>
<text xml:space="preserve" text-anchor="middle" x="74" y="-496.95" font-family="Sans-Serif" font-size="10.00" fill="#2d3436">Run</text>
<text xml:space="preserve" text-anchor="middle" x="74" y="-485.7" font-family="Sans-Serif" font-size="10.00" fill="#2d3436">Linter</text>
</g>
<!-- 95ebbc21c3044811937b90a6372c0046&#45;&gt;99d2018a77094e1691ff5be42250e88b -->
<g id="edge5" class="edge">
<title>95ebbc21c3044811937b90a6372c0046&#45;&gt;99d2018a77094e1691ff5be42250e88b</title>
<path fill="none" stroke="#7b8894" d="M74,-703.64C74,-703.64 74,-660.9 74,-660.9"/>
<polygon fill="#7b8894" stroke="#7b8894" points="77.5,-660.9 74,-650.9 70.5,-660.9 77.5,-660.9"/>
</g>
<!-- 9e594a065fcb499188314a996f142c6f -->
<g id="node7" class="node">
<title>9e594a065fcb499188314a996f142c6f</title>
<image xlink:href="/Users/colin/.local/share/uv/default-env/lib/python3.12/site-packages/resources/generic/blank/blank.png" width="100.8px" height="100.8px" preserveAspectRatio="xMinYMin meet" x="23.6" y="-397.55"/>
<text xml:space="preserve" text-anchor="middle" x="74" y="-277.35" font-family="Sans-Serif" font-size="10.00" fill="#2d3436">Run</text>
<text xml:space="preserve" text-anchor="middle" x="74" y="-266.1" font-family="Sans-Serif" font-size="10.00" fill="#2d3436">Tests</text>
</g>
<!-- 99d2018a77094e1691ff5be42250e88b&#45;&gt;9e594a065fcb499188314a996f142c6f -->
<g id="edge6" class="edge">
<title>99d2018a77094e1691ff5be42250e88b&#45;&gt;9e594a065fcb499188314a996f142c6f</title>
<path fill="none" stroke="#7b8894" d="M74,-484.04C74,-484.04 74,-441.3 74,-441.3"/>
<polygon fill="#7b8894" stroke="#7b8894" points="77.5,-441.3 74,-431.3 70.5,-441.3 77.5,-441.3"/>
</g>
<!-- 4b82d79a0e9340f689181ded5c727fb8 -->
<g id="node8" class="node">
<title>4b82d79a0e9340f689181ded5c727fb8</title>
<image xlink:href="/Users/colin/.local/share/uv/default-env/lib/python3.12/site-packages/resources/generic/blank/blank.png" width="100.8px" height="100.8px" preserveAspectRatio="xMinYMin meet" x="23.6" y="-177.95"/>
<text xml:space="preserve" text-anchor="middle" x="74" y="-57.75" font-family="Sans-Serif" font-size="10.00" fill="#2d3436">Build</text>
<text xml:space="preserve" text-anchor="middle" x="74" y="-46.5" font-family="Sans-Serif" font-size="10.00" fill="#2d3436">Packages</text>
</g>
<!-- 9e594a065fcb499188314a996f142c6f&#45;&gt;4b82d79a0e9340f689181ded5c727fb8 -->
<g id="edge7" class="edge">
<title>9e594a065fcb499188314a996f142c6f&#45;&gt;4b82d79a0e9340f689181ded5c727fb8</title>
<path fill="none" stroke="#7b8894" d="M74,-264.44C74,-264.44 74,-221.7 74,-221.7"/>
<polygon fill="#7b8894" stroke="#7b8894" points="77.5,-221.7 74,-211.7 70.5,-221.7 77.5,-221.7"/>
</g>
</g>
</svg>
