<?xml version="1.0" encoding="UTF-8" standalone="no"?>
<!DOCTYPE svg PUBLIC "-//W3C//DTD SVG 1.1//EN"
 "http://www.w3.org/Graphics/SVG/1.1/DTD/svg11.dtd">
<!-- Generated by graphviz version 14.0.2 (20251019.1705)
 -->
<!-- Title: Complete Monorepository Workflow Pages: 1 -->
<svg width="1338pt" height="1575pt"
 viewBox="0.00 0.00 1338.00 1575.00" xmlns="http://www.w3.org/2000/svg" xmlns:xlink="http://www.w3.org/1999/xlink">
<g id="graph0" class="graph" transform="scale(1 1) rotate(0) translate(36 1538.75)">
<title>Complete Monorepository Workflow</title>
<polygon fill="white" stroke="none" points="-36,36 -36,-1538.75 1302.3,-1538.75 1302.3,36 -36,36"/>
<text xml:space="preserve" text-anchor="middle" x="633.15" y="-5.35" font-family="Sans-Serif" font-size="12.00" fill="#2d3436">Complete Monorepository Workflow</text>
<g id="clust1" class="cluster">
<title>cluster_Development</title>
<path fill="#e5f5fd" stroke="#aeb6be" d="M20,-663.75C20,-663.75 268.6,-663.75 268.6,-663.75 274.6,-663.75 280.6,-669.75 280.6,-675.75 280.6,-675.75 280.6,-854.75 280.6,-854.75 280.6,-860.75 274.6,-866.75 268.6,-866.75 268.6,-866.75 20,-866.75 20,-866.75 14,-866.75 8,-860.75 8,-854.75 8,-854.75 8,-675.75 8,-675.75 8,-669.75 14,-663.75 20,-663.75"/>
<text xml:space="preserve" text-anchor="middle" x="51.62" y="-851.35" font-family="Sans-Serif" font-size="12.00" fill="#2d3436">Development</text>
</g>
<g id="clust2" class="cluster">
<title>cluster_Release Preparation</title>
<path fill="#e5f5fd" stroke="#aeb6be" d="M391.35,-649.75C391.35,-649.75 639.95,-649.75 639.95,-649.75 645.95,-649.75 651.95,-655.75 651.95,-661.75 651.95,-661.75 651.95,-868.75 651.95,-868.75 651.95,-874.75 645.95,-880.75 639.95,-880.75 639.95,-880.75 391.35,-880.75 391.35,-880.75 385.35,-880.75 379.35,-874.75 379.35,-868.75 379.35,-868.75 379.35,-661.75 379.35,-661.75 379.35,-655.75 385.35,-649.75 391.35,-649.75"/>
<text xml:space="preserve" text-anchor="middle" x="442.48" y="-865.35" font-family="Sans-Serif" font-size="12.00" fill="#2d3436">Release Preparation</text>
</g>
<g id="clust3" class="cluster">
<title>cluster_Release Workflows</title>
<path fill="#e5f5fd" stroke="#aeb6be" d="M780.2,-28.75C780.2,-28.75 942.7,-28.75 942.7,-28.75 948.7,-28.75 954.7,-34.75 954.7,-40.75 954.7,-40.75 954.7,-1482.75 954.7,-1482.75 954.7,-1488.75 948.7,-1494.75 942.7,-1494.75 942.7,-1494.75 780.2,-1494.75 780.2,-1494.75 774.2,-1494.75 768.2,-1488.75 768.2,-1482.75 768.2,-1482.75 768.2,-40.75 768.2,-40.75 768.2,-34.75 774.2,-28.75 780.2,-28.75"/>
<text xml:space="preserve" text-anchor="middle" x="827.95" y="-1479.35" font-family="Sans-Serif" font-size="12.00" fill="#2d3436">Release Workflows</text>
</g>
<g id="clust4" class="cluster">
<title>cluster_Root Release</title>
<path fill="#ebf3e7" stroke="#aeb6be" d="M814.55,-1292.75C814.55,-1292.75 907.35,-1292.75 907.35,-1292.75 913.35,-1292.75 919.35,-1298.75 919.35,-1304.75 919.35,-1304.75 919.35,-1453.75 919.35,-1453.75 919.35,-1459.75 913.35,-1465.75 907.35,-1465.75 907.35,-1465.75 814.55,-1465.75 814.55,-1465.75 808.55,-1465.75 802.55,-1459.75 802.55,-1453.75 802.55,-1453.75 802.55,-1304.75 802.55,-1304.75 802.55,-1298.75 808.55,-1292.75 814.55,-1292.75"/>
<text xml:space="preserve" text-anchor="middle" x="847.3" y="-1450.35" font-family="Sans-Serif" font-size="12.00" fill="#2d3436">Root Release</text>
</g>
<g id="clust5" class="cluster">
<title>cluster_Language&#45;Specific Releases</title>
<path fill="#ebf3e7" stroke="#aeb6be" d="M788.2,-36.75C788.2,-36.75 934.7,-36.75 934.7,-36.75 940.7,-36.75 946.7,-42.75 946.7,-48.75 946.7,-48.75 946.7,-1272.75 946.7,-1272.75 946.7,-1278.75 940.7,-1284.75 934.7,-1284.75 934.7,-1284.75 788.2,-1284.75 788.2,-1284.75 782.2,-1284.75 776.2,-1278.75 776.2,-1272.75 776.2,-1272.75 776.2,-48.75 776.2,-48.75 776.2,-42.75 782.2,-36.75 788.2,-36.75"/>
<text xml:space="preserve" text-anchor="middle" x="861.45" y="-1269.35" font-family="Sans-Serif" font-size="12.00" fill="#2d3436">Language&#45;Specific Releases</text>
</g>
<g id="clust6" class="cluster">
<title>cluster_Outputs</title>
<path fill="#e5f5fd" stroke="#aeb6be" d="M997.7,-559.75C997.7,-559.75 1246.3,-559.75 1246.3,-559.75 1252.3,-559.75 1258.3,-565.75 1258.3,-571.75 1258.3,-571.75 1258.3,-959.75 1258.3,-959.75 1258.3,-965.75 1252.3,-971.75 1246.3,-971.75 1246.3,-971.75 997.7,-971.75 997.7,-971.75 991.7,-971.75 985.7,-965.75 985.7,-959.75 985.7,-959.75 985.7,-571.75 985.7,-571.75 985.7,-565.75 991.7,-559.75 997.7,-559.75"/>
<text xml:space="preserve" text-anchor="middle" x="1014.33" y="-956.35" font-family="Sans-Serif" font-size="12.00" fill="#2d3436">Outputs</text>
</g>
<!-- 8bf9292ffb4b4a4d8b9adc3fedf814d6 -->
<g id="node1" class="node">
<title>8bf9292ffb4b4a4d8b9adc3fedf814d6</title>
<image xlink:href="/Users/colin/.local/share/uv/default-env/lib/python3.12/site-packages/resources/onprem/vcs/github.png" width="100.8px" height="100.8px" preserveAspectRatio="xMinYMin meet" x="16" y="-805.15"/>
<text xml:space="preserve" text-anchor="middle" x="66.4" y="-684.95" font-family="Sans-Serif" font-size="10.00" fill="#2d3436">Push to</text>
<text xml:space="preserve" text-anchor="middle" x="66.4" y="-673.7" font-family="Sans-Serif" font-size="10.00" fill="#2d3436">feature/develop</text>
</g>
<!-- bb41c973106a4bcf9eb613254e9cc6d3 -->
<g id="node2" class="node">
<title>bb41c973106a4bcf9eb613254e9cc6d3</title>
<image xlink:href="/Users/colin/.local/share/uv/default-env/lib/python3.12/site-packages/resources/onprem/ci/github-actions.png" width="100.8px" height="100.8px" preserveAspectRatio="xMinYMin meet" x="171.8" y="-805.15"/>
<text xml:space="preserve" text-anchor="middle" x="222.2" y="-684.95" font-family="Sans-Serif" font-size="10.00" fill="#2d3436">CI</text>
<text xml:space="preserve" text-anchor="middle" x="222.2" y="-673.7" font-family="Sans-Serif" font-size="10.00" fill="#2d3436">Workflow</text>
</g>
<!-- 8bf9292ffb4b4a4d8b9adc3fedf814d6&#45;&gt;bb41c973106a4bcf9eb613254e9cc6d3 -->
<g id="edge1" class="edge">
<title>8bf9292ffb4b4a4d8b9adc3fedf814d6&#45;&gt;bb41c973106a4bcf9eb613254e9cc6d3</title>
<path fill="none" stroke="#7b8894" d="M116.55,-754.75C116.55,-754.75 160.36,-754.75 160.36,-754.75"/>
<polygon fill="#7b8894" stroke="#7b8894" points="160.36,-758.25 170.36,-754.75 160.36,-751.25 160.36,-758.25"/>
</g>
<!-- e6f078cecd54419497524755d7fa611c -->
<g id="node3" class="node">
<title>e6f078cecd54419497524755d7fa611c</title>
<image xlink:href="/Users/colin/.local/share/uv/default-env/lib/python3.12/site-packages/resources/generic/blank/blank.png" width="100.8px" height="100.8px" preserveAspectRatio="xMinYMin meet" x="387.35" y="-805.15"/>
<text xml:space="preserve" text-anchor="middle" x="437.75" y="-684.95" font-family="Sans-Serif" font-size="10.00" fill="#2d3436">Create</text>
<text xml:space="preserve" text-anchor="middle" x="437.75" y="-673.7" font-family="Sans-Serif" font-size="10.00" fill="#2d3436">Release Tag</text>
</g>
<!-- bb41c973106a4bcf9eb613254e9cc6d3&#45;&gt;e6f078cecd54419497524755d7fa611c -->
<g id="edge2" class="edge">
<title>bb41c973106a4bcf9eb613254e9cc6d3&#45;&gt;e6f078cecd54419497524755d7fa611c</title>
<path fill="none" stroke="#7b8894" d="M272.46,-754.75C272.46,-754.75 375.89,-754.75 375.89,-754.75"/>
<polygon fill="#7b8894" stroke="#7b8894" points="375.89,-758.25 385.89,-754.75 375.89,-751.25 375.89,-758.25"/>
<text xml:space="preserve" text-anchor="middle" x="329.98" y="-755.9" font-family="Sans-Serif" font-size="13.00" fill="#2d3436">tests pass</text>
</g>
<!-- 7ede44e3f18c4a0488d0bec3ad717341 -->
<g id="node4" class="node">
<title>7ede44e3f18c4a0488d0bec3ad717341</title>
<image xlink:href="/Users/colin/.local/share/uv/default-env/lib/python3.12/site-packages/resources/generic/blank/blank.png" width="100.8px" height="100.8px" preserveAspectRatio="xMinYMin meet" x="543.15" y="-805.15"/>
<text xml:space="preserve" text-anchor="middle" x="593.55" y="-681.8" font-family="Sans-Serif" font-size="10.00" fill="#2d3436">Tag Type:</text>
<text xml:space="preserve" text-anchor="middle" x="593.55" y="-670.55" font-family="Sans-Serif" font-size="10.00" fill="#2d3436">v*.*.* or</text>
<text xml:space="preserve" text-anchor="middle" x="593.55" y="-659.3" font-family="Sans-Serif" font-size="10.00" fill="#2d3436">package&#45;*@v*.*.*</text>
</g>
<!-- e6f078cecd54419497524755d7fa611c&#45;&gt;7ede44e3f18c4a0488d0bec3ad717341 -->
<g id="edge3" class="edge">
<title>e6f078cecd54419497524755d7fa611c&#45;&gt;7ede44e3f18c4a0488d0bec3ad717341</title>
<path fill="none" stroke="#7b8894" d="M487.9,-754.75C487.9,-754.75 531.71,-754.75 531.71,-754.75"/>
<polygon fill="#7b8894" stroke="#7b8894" points="531.71,-758.25 541.71,-754.75 531.71,-751.25 531.71,-758.25"/>
</g>
<!-- e4568f80c6de40ad9fe1d577d221a75d -->
<g id="node5" class="node">
<title>e4568f80c6de40ad9fe1d577d221a75d</title>
<image xlink:href="/Users/colin/.local/share/uv/default-env/lib/python3.12/site-packages/resources/onprem/ci/github-actions.png" width="100.8px" height="100.8px" preserveAspectRatio="xMinYMin meet" x="810.55" y="-1419.15"/>
<text xml:space="preserve" text-anchor="middle" x="860.95" y="-1302.1" font-family="Sans-Serif" font-size="10.00" fill="#2d3436">release.yml</text>
</g>
<!-- 7ede44e3f18c4a0488d0bec3ad717341&#45;&gt;e4568f80c6de40ad9fe1d577d221a75d -->
<g id="edge4" class="edge">
<title>7ede44e3f18c4a0488d0bec3ad717341&#45;&gt;e4568f80c6de40ad9fe1d577d221a75d</title>
<path fill="none" stroke="#7b8894" d="M576.3,-851.7C576.3,-1024.72 576.3,-1368.75 576.3,-1368.75 576.3,-1368.75 799.2,-1368.75 799.2,-1368.75"/>
<polygon fill="#7b8894" stroke="#7b8894" points="799.2,-1372.25 809.2,-1368.75 799.2,-1365.25 799.2,-1372.25"/>
<text xml:space="preserve" text-anchor="middle" x="714.08" y="-1246.9" font-family="Sans-Serif" font-size="13.00" fill="#2d3436">v*.*.*</text>
</g>
<!-- ee8ef6ebdf964261949f4095e2e5bfec -->
<g id="node6" class="node">
<title>ee8ef6ebdf964261949f4095e2e5bfec</title>
<image xlink:href="/Users/colin/.local/share/uv/default-env/lib/python3.12/site-packages/resources/programming/language/python.png" width="100.8px" height="100.8px" preserveAspectRatio="xMinYMin meet" x="810.55" y="-1223.15"/>
<text xml:space="preserve" text-anchor="middle" x="860.95" y="-1102.95" font-family="Sans-Serif" font-size="10.00" fill="#2d3436">Python</text>
<text xml:space="preserve" text-anchor="middle" x="860.95" y="-1091.7" font-family="Sans-Serif" font-size="10.00" fill="#2d3436">packages a,b,c</text>
</g>
<!-- 7ede44e3f18c4a0488d0bec3ad717341&#45;&gt;ee8ef6ebdf964261949f4095e2e5bfec -->
<g id="edge5" class="edge">
<title>7ede44e3f18c4a0488d0bec3ad717341&#45;&gt;ee8ef6ebdf964261949f4095e2e5bfec</title>
<path fill="none" stroke="#7b8894" d="M610.3,-851.7C610.3,-975.18 610.3,-1172.75 610.3,-1172.75 610.3,-1172.75 799.32,-1172.75 799.32,-1172.75"/>
<polygon fill="#7b8894" stroke="#7b8894" points="799.32,-1176.25 809.32,-1172.75 799.32,-1169.25 799.32,-1176.25"/>
<text xml:space="preserve" text-anchor="middle" x="714.08" y="-1062.9" font-family="Sans-Serif" font-size="13.00" fill="#2d3436">package&#45;*@v*</text>
</g>
<!-- 934b859988b74db9b59f1190dd8aa437 -->
<g id="node7" class="node">
<title>934b859988b74db9b59f1190dd8aa437</title>
<image xlink:href="/Users/colin/.local/share/uv/default-env/lib/python3.12/site-packages/resources/programming/language/rust.png" width="100.8px" height="100.8px" preserveAspectRatio="xMinYMin meet" x="810.55" y="-1014.15"/>
<text xml:space="preserve" text-anchor="middle" x="860.95" y="-893.95" font-family="Sans-Serif" font-size="10.00" fill="#2d3436">Rust</text>
<text xml:space="preserve" text-anchor="middle" x="860.95" y="-882.7" font-family="Sans-Serif" font-size="10.00" fill="#2d3436">packages e,i</text>
</g>
<!-- 7ede44e3f18c4a0488d0bec3ad717341&#45;&gt;934b859988b74db9b59f1190dd8aa437 -->
<g id="edge6" class="edge">
<title>7ede44e3f18c4a0488d0bec3ad717341&#45;&gt;934b859988b74db9b59f1190dd8aa437</title>
<path fill="none" stroke="#7b8894" d="M643.91,-844.75C721.47,-844.75 861.3,-844.75 861.3,-844.75 861.3,-844.75 861.3,-869.59 861.3,-869.59"/>
<polygon fill="#7b8894" stroke="#7b8894" points="857.8,-869.59 861.3,-879.59 864.8,-869.59 857.8,-869.59"/>
<text xml:space="preserve" text-anchor="middle" x="714.08" y="-890.9" font-family="Sans-Serif" font-size="13.00" fill="#2d3436">package&#45;*@v*</text>
</g>
<!-- bb10fd70445549bf92abdf2dffab3279 -->
<g id="node8" class="node">
<title>bb10fd70445549bf92abdf2dffab3279</title>
<image xlink:href="/Users/colin/.local/share/uv/default-env/lib/python3.12/site-packages/resources/programming/language/go.png" width="100.8px" height="100.8px" preserveAspectRatio="xMinYMin meet" x="810.55" y="-805.15"/>
<text xml:space="preserve" text-anchor="middle" x="860.95" y="-684.95" font-family="Sans-Serif" font-size="10.00" fill="#2d3436">Go</text>
<text xml:space="preserve" text-anchor="middle" x="860.95" y="-673.7" font-family="Sans-Serif" font-size="10.00" fill="#2d3436">package g</text>
</g>
<!-- 7ede44e3f18c4a0488d0bec3ad717341&#45;&gt;bb10fd70445549bf92abdf2dffab3279 -->
<g id="edge7" class="edge">
<title>7ede44e3f18c4a0488d0bec3ad717341&#45;&gt;bb10fd70445549bf92abdf2dffab3279</title>
<path fill="none" stroke="#7b8894" d="M643.85,-754.75C643.85,-754.75 799.37,-754.75 799.37,-754.75"/>
<polygon fill="#7b8894" stroke="#7b8894" points="799.37,-758.25 809.37,-754.75 799.37,-751.25 799.37,-758.25"/>
<text xml:space="preserve" text-anchor="middle" x="714.08" y="-755.9" font-family="Sans-Serif" font-size="13.00" fill="#2d3436">package&#45;*@v*</text>
</g>
<!-- 342f60ab784f460c97614d31d7eda93e -->
<g id="node9" class="node">
<title>342f60ab784f460c97614d31d7eda93e</title>
<image xlink:href="/Users/colin/.local/share/uv/default-env/lib/python3.12/site-packages/resources/generic/blank/blank.png" width="100.8px" height="100.8px" preserveAspectRatio="xMinYMin meet" x="810.55" y="-596.15"/>
<text xml:space="preserve" text-anchor="middle" x="860.95" y="-475.95" font-family="Sans-Serif" font-size="10.00" fill="#2d3436">C++</text>
<text xml:space="preserve" text-anchor="middle" x="860.95" y="-464.7" font-family="Sans-Serif" font-size="10.00" fill="#2d3436">package d</text>
</g>
<!-- 7ede44e3f18c4a0488d0bec3ad717341&#45;&gt;342f60ab784f460c97614d31d7eda93e -->
<g id="edge8" class="edge">
<title>7ede44e3f18c4a0488d0bec3ad717341&#45;&gt;342f60ab784f460c97614d31d7eda93e</title>
<path fill="none" stroke="#7b8894" d="M643.91,-664.75C721.47,-664.75 861.3,-664.75 861.3,-664.75 861.3,-664.75 861.3,-639.91 861.3,-639.91"/>
<polygon fill="#7b8894" stroke="#7b8894" points="864.8,-639.91 861.3,-629.91 857.8,-639.91 864.8,-639.91"/>
<text xml:space="preserve" text-anchor="middle" x="714.08" y="-620.9" font-family="Sans-Serif" font-size="13.00" fill="#2d3436">package&#45;*@v*</text>
</g>
<!-- 6253c1a109304bc5b20089e63c32fab1 -->
<g id="node10" class="node">
<title>6253c1a109304bc5b20089e63c32fab1</title>
<image xlink:href="/Users/colin/.local/share/uv/default-env/lib/python3.12/site-packages/resources/programming/language/java.png" width="100.8px" height="100.8px" preserveAspectRatio="xMinYMin meet" x="810.55" y="-387.15"/>
<text xml:space="preserve" text-anchor="middle" x="860.95" y="-266.95" font-family="Sans-Serif" font-size="10.00" fill="#2d3436">Java</text>
<text xml:space="preserve" text-anchor="middle" x="860.95" y="-255.7" font-family="Sans-Serif" font-size="10.00" fill="#2d3436">package h</text>
</g>
<!-- 7ede44e3f18c4a0488d0bec3ad717341&#45;&gt;6253c1a109304bc5b20089e63c32fab1 -->
<g id="edge9" class="edge">
<title>7ede44e3f18c4a0488d0bec3ad717341&#45;&gt;6253c1a109304bc5b20089e63c32fab1</title>
<path fill="none" stroke="#7b8894" d="M610.3,-657.8C610.3,-534.32 610.3,-336.75 610.3,-336.75 610.3,-336.75 799.32,-336.75 799.32,-336.75"/>
<polygon fill="#7b8894" stroke="#7b8894" points="799.32,-340.25 809.32,-336.75 799.32,-333.25 799.32,-340.25"/>
<text xml:space="preserve" text-anchor="middle" x="714.08" y="-447.9" font-family="Sans-Serif" font-size="13.00" fill="#2d3436">package&#45;*@v*</text>
</g>
<!-- ebe0d14a2e72445a94c2b369831c867c -->
<g id="node11" class="node">
<title>ebe0d14a2e72445a94c2b369831c867c</title>
<image xlink:href="/Users/colin/.local/share/uv/default-env/lib/python3.12/site-packages/resources/programming/language/swift.png" width="100.8px" height="90.5625px" preserveAspectRatio="xMinYMin meet" x="810.55" y="-173.031"/>
<text xml:space="preserve" text-anchor="middle" x="860.95" y="-57.95" font-family="Sans-Serif" font-size="10.00" fill="#2d3436">Swift</text>
<text xml:space="preserve" text-anchor="middle" x="860.95" y="-46.7" font-family="Sans-Serif" font-size="10.00" fill="#2d3436">package f</text>
</g>
<!-- 7ede44e3f18c4a0488d0bec3ad717341&#45;&gt;ebe0d14a2e72445a94c2b369831c867c -->
<g id="edge10" class="edge">
<title>7ede44e3f18c4a0488d0bec3ad717341&#45;&gt;ebe0d14a2e72445a94c2b369831c867c</title>
<path fill="none" stroke="#7b8894" d="M576.3,-657.81C576.3,-481.82 576.3,-127.75 576.3,-127.75 576.3,-127.75 799.2,-127.75 799.2,-127.75"/>
<polygon fill="#7b8894" stroke="#7b8894" points="799.2,-131.25 809.2,-127.75 799.2,-124.25 799.2,-131.25"/>
<text xml:space="preserve" text-anchor="middle" x="714.08" y="-312.9" font-family="Sans-Serif" font-size="13.00" fill="#2d3436">package&#45;*@v*</text>
</g>
<!-- 533782b045cf442b8a7a5e965522171d -->
<g id="node12" class="node">
<title>533782b045cf442b8a7a5e965522171d</title>
<image xlink:href="/Users/colin/.local/share/uv/default-env/lib/python3.12/site-packages/resources/onprem/vcs/github.png" width="100.8px" height="100.8px" preserveAspectRatio="xMinYMin meet" x="993.7" y="-805.15"/>
<text xml:space="preserve" text-anchor="middle" x="1044.1" y="-684.95" font-family="Sans-Serif" font-size="10.00" fill="#2d3436">GitHub</text>
<text xml:space="preserve" text-anchor="middle" x="1044.1" y="-673.7" font-family="Sans-Serif" font-size="10.00" fill="#2d3436">Release</text>
</g>
<!-- e4568f80c6de40ad9fe1d577d221a75d&#45;&gt;533782b045cf442b8a7a5e965522171d -->
<g id="edge11" class="edge">
<title>e4568f80c6de40ad9fe1d577d221a75d&#45;&gt;533782b045cf442b8a7a5e965522171d</title>
<path fill="none" stroke="#7b8894" d="M911.12,-1368.75C972.77,-1368.75 1069.3,-1368.75 1069.3,-1368.75 1069.3,-1368.75 1069.3,-848.75 1069.3,-848.75"/>
<polygon fill="#7b8894" stroke="#7b8894" points="1072.8,-848.75 1069.3,-838.75 1065.8,-848.75 1072.8,-848.75"/>
</g>
<!-- ee8ef6ebdf964261949f4095e2e5bfec&#45;&gt;533782b045cf442b8a7a5e965522171d -->
<g id="edge12" class="edge">
<title>ee8ef6ebdf964261949f4095e2e5bfec&#45;&gt;533782b045cf442b8a7a5e965522171d</title>
<path fill="none" stroke="#7b8894" d="M911.05,-1172.75C965.34,-1172.75 1044.3,-1172.75 1044.3,-1172.75 1044.3,-1172.75 1044.3,-848.85 1044.3,-848.85"/>
<polygon fill="#7b8894" stroke="#7b8894" points="1047.8,-848.85 1044.3,-838.85 1040.8,-848.85 1047.8,-848.85"/>
</g>
<!-- 934b859988b74db9b59f1190dd8aa437&#45;&gt;533782b045cf442b8a7a5e965522171d -->
<g id="edge13" class="edge">
<title>934b859988b74db9b59f1190dd8aa437&#45;&gt;533782b045cf442b8a7a5e965522171d</title>
<path fill="none" stroke="#7b8894" d="M911.05,-911.75C957.44,-911.75 1019.3,-911.75 1019.3,-911.75 1019.3,-911.75 1019.3,-848.9 1019.3,-848.9"/>
<polygon fill="#7b8894" stroke="#7b8894" points="1022.8,-848.9 1019.3,-838.9 1015.8,-848.9 1022.8,-848.9"/>
</g>
<!-- bb10fd70445549bf92abdf2dffab3279&#45;&gt;533782b045cf442b8a7a5e965522171d -->
<g id="edge14" class="edge">
<title>bb10fd70445549bf92abdf2dffab3279&#45;&gt;533782b045cf442b8a7a5e965522171d</title>
<path fill="none" stroke="#7b8894" d="M911,-754.75C911,-754.75 982.28,-754.75 982.28,-754.75"/>
<polygon fill="#7b8894" stroke="#7b8894" points="982.28,-758.25 992.28,-754.75 982.28,-751.25 982.28,-758.25"/>
</g>
<!-- 342f60ab784f460c97614d31d7eda93e&#45;&gt;533782b045cf442b8a7a5e965522171d -->
<g id="edge15" class="edge">
<title>342f60ab784f460c97614d31d7eda93e&#45;&gt;533782b045cf442b8a7a5e965522171d</title>
<path fill="none" stroke="#7b8894" d="M911.05,-598.25C957.44,-598.25 1019.3,-598.25 1019.3,-598.25 1019.3,-598.25 1019.3,-660.86 1019.3,-660.86"/>
<polygon fill="#7b8894" stroke="#7b8894" points="1015.8,-660.86 1019.3,-670.86 1022.8,-660.86 1015.8,-660.86"/>
</g>
<!-- 6253c1a109304bc5b20089e63c32fab1&#45;&gt;533782b045cf442b8a7a5e965522171d -->
<g id="edge16" class="edge">
<title>6253c1a109304bc5b20089e63c32fab1&#45;&gt;533782b045cf442b8a7a5e965522171d</title>
<path fill="none" stroke="#7b8894" d="M911.05,-336.75C965.34,-336.75 1044.3,-336.75 1044.3,-336.75 1044.3,-336.75 1044.3,-660.65 1044.3,-660.65"/>
<polygon fill="#7b8894" stroke="#7b8894" points="1040.8,-660.65 1044.3,-670.65 1047.8,-660.65 1040.8,-660.65"/>
</g>
<!-- ebe0d14a2e72445a94c2b369831c867c&#45;&gt;533782b045cf442b8a7a5e965522171d -->
<g id="edge17" class="edge">
<title>ebe0d14a2e72445a94c2b369831c867c&#45;&gt;533782b045cf442b8a7a5e965522171d</title>
<path fill="none" stroke="#7b8894" d="M911.12,-127.75C972.77,-127.75 1069.3,-127.75 1069.3,-127.75 1069.3,-127.75 1069.3,-660.62 1069.3,-660.62"/>
<polygon fill="#7b8894" stroke="#7b8894" points="1065.8,-660.62 1069.3,-670.62 1072.8,-660.62 1065.8,-660.62"/>
</g>
<!-- 670879b8fadd4e32b43f4cdf99df1053 -->
<g id="node13" class="node">
<title>670879b8fadd4e32b43f4cdf99df1053</title>
<image xlink:href="/Users/colin/.local/share/uv/default-env/lib/python3.12/site-packages/resources/generic/blank/blank.png" width="100.8px" height="100.8px" preserveAspectRatio="xMinYMin meet" x="1149.5" y="-701.15"/>
<text xml:space="preserve" text-anchor="middle" x="1199.9" y="-580.95" font-family="Sans-Serif" font-size="10.00" fill="#2d3436">Platform</text>
<text xml:space="preserve" text-anchor="middle" x="1199.9" y="-569.7" font-family="Sans-Serif" font-size="10.00" fill="#2d3436">Artifacts</text>
</g>
<!-- 533782b045cf442b8a7a5e965522171d&#45;&gt;670879b8fadd4e32b43f4cdf99df1053 -->
<g id="edge18" class="edge">
<title>533782b045cf442b8a7a5e965522171d&#45;&gt;670879b8fadd4e32b43f4cdf99df1053</title>
<path fill="none" stroke="#7b8894" d="M1094.25,-702.75C1094.25,-702.75 1138.06,-702.75 1138.06,-702.75"/>
<polygon fill="#7b8894" stroke="#7b8894" points="1138.06,-706.25 1148.06,-702.75 1138.06,-699.25 1138.06,-706.25"/>
</g>
<!-- 50497e9ab82c4cfbb51cf5687cea33fc -->
<g id="node14" class="node">
<title>50497e9ab82c4cfbb51cf5687cea33fc</title>
<image xlink:href="/Users/colin/.local/share/uv/default-env/lib/python3.12/site-packages/resources/generic/blank/blank.png" width="100.8px" height="100.8px" preserveAspectRatio="xMinYMin meet" x="1149.5" y="-910.15"/>
<text xml:space="preserve" text-anchor="middle" x="1199.9" y="-789.95" font-family="Sans-Serif" font-size="10.00" fill="#2d3436">SHA256</text>
<text xml:space="preserve" text-anchor="middle" x="1199.9" y="-778.7" font-family="Sans-Serif" font-size="10.00" fill="#2d3436">Checksums</text>
</g>
<!-- 533782b045cf442b8a7a5e965522171d&#45;&gt;50497e9ab82c4cfbb51cf5687cea33fc -->
<g id="edge19" class="edge">
<title>533782b045cf442b8a7a5e965522171d&#45;&gt;50497e9ab82c4cfbb51cf5687cea33fc</title>
<path fill="none" stroke="#7b8894" d="M1094.25,-807.25C1094.25,-807.25 1138.06,-807.25 1138.06,-807.25"/>
<polygon fill="#7b8894" stroke="#7b8894" points="1138.06,-810.75 1148.06,-807.25 1138.06,-803.75 1138.06,-810.75"/>
</g>
</g>
</svg>
