<?xml version="1.0" encoding="UTF-8" standalone="no"?>
<!DOCTYPE svg PUBLIC "-//W3C//DTD SVG 1.1//EN"
 "http://www.w3.org/Graphics/SVG/1.1/DTD/svg11.dtd">
<!-- Generated by graphviz version 14.0.2 (20251019.1705)
 -->
<!-- Title: Git Flow Branching Strategy Pages: 1 -->
<svg width="1077pt" height="1101pt"
 viewBox="0.00 0.00 1077.00 1101.00" xmlns="http://www.w3.org/2000/svg" xmlns:xlink="http://www.w3.org/1999/xlink">
<g id="graph0" class="graph" transform="scale(1 1) rotate(0) translate(36 1064.75)">
<title>Git Flow Branching Strategy</title>
<polygon fill="white" stroke="none" points="-36,36 -36,-1064.75 1041,-1064.75 1041,36 -36,36"/>
<text xml:space="preserve" text-anchor="middle" x="502.5" y="-5.35" font-family="Sans-Serif" font-size="12.00" fill="#2d3436">Git Flow Branching Strategy</text>
<g id="clust1" class="cluster">
<title>cluster_Branches</title>
<path fill="#e5f5fd" stroke="#aeb6be" d="M20,-563.75C20,-563.75 829.2,-563.75 829.2,-563.75 835.2,-563.75 841.2,-569.75 841.2,-575.75 841.2,-575.75 841.2,-1008.75 841.2,-1008.75 841.2,-1014.75 835.2,-1020.75 829.2,-1020.75 829.2,-1020.75 20,-1020.75 20,-1020.75 14,-1020.75 8,-1014.75 8,-1008.75 8,-1008.75 8,-575.75 8,-575.75 8,-569.75 14,-563.75 20,-563.75"/>
<text xml:space="preserve" text-anchor="middle" x="41.5" y="-1005.35" font-family="Sans-Serif" font-size="12.00" fill="#2d3436">Branches</text>
</g>
<g id="clust2" class="cluster">
<title>cluster_CI/CD Triggers</title>
<path fill="#e5f5fd" stroke="#aeb6be" d="M736.4,-143.75C736.4,-143.75 829.2,-143.75 829.2,-143.75 835.2,-143.75 841.2,-149.75 841.2,-155.75 841.2,-155.75 841.2,-543.75 841.2,-543.75 841.2,-549.75 835.2,-555.75 829.2,-555.75 829.2,-555.75 736.4,-555.75 736.4,-555.75 730.4,-555.75 724.4,-549.75 724.4,-543.75 724.4,-543.75 724.4,-155.75 724.4,-155.75 724.4,-149.75 730.4,-143.75 736.4,-143.75"/>
<text xml:space="preserve" text-anchor="middle" x="772.15" y="-540.35" font-family="Sans-Serif" font-size="12.00" fill="#2d3436">CI/CD Triggers</text>
</g>
<g id="clust3" class="cluster">
<title>cluster_Outputs</title>
<path fill="#e5f5fd" stroke="#aeb6be" d="M892.2,-28.75C892.2,-28.75 985,-28.75 985,-28.75 991,-28.75 997,-34.75 997,-40.75 997,-40.75 997,-398.75 997,-398.75 997,-404.75 991,-410.75 985,-410.75 985,-410.75 892.2,-410.75 892.2,-410.75 886.2,-410.75 880.2,-404.75 880.2,-398.75 880.2,-398.75 880.2,-40.75 880.2,-40.75 880.2,-34.75 886.2,-28.75 892.2,-28.75"/>
<text xml:space="preserve" text-anchor="middle" x="908.82" y="-395.35" font-family="Sans-Serif" font-size="12.00" fill="#2d3436">Outputs</text>
</g>
<!-- e4a7adb9b8fd4af6bc3a4b5d40dbe633 -->
<g id="node1" class="node">
<title>e4a7adb9b8fd4af6bc3a4b5d40dbe633</title>
<image xlink:href="/Users/colin/.local/share/uv/default-env/lib/python3.12/site-packages/resources/onprem/vcs/github.png" width="100.8px" height="100.8px" preserveAspectRatio="xMinYMin meet" x="16" y="-801.15"/>
<text xml:space="preserve" text-anchor="middle" x="66.4" y="-680.95" font-family="Sans-Serif" font-size="10.00" fill="#2d3436">main</text>
<text xml:space="preserve" text-anchor="middle" x="66.4" y="-669.7" font-family="Sans-Serif" font-size="10.00" fill="#2d3436">(production)</text>
</g>
<!-- 6473001e2a2d42fa982f062cf67041b9 -->
<g id="node5" class="node">
<title>6473001e2a2d42fa982f062cf67041b9</title>
<image xlink:href="/Users/colin/.local/share/uv/default-env/lib/python3.12/site-packages/resources/onprem/vcs/github.png" width="100.8px" height="100.8px" preserveAspectRatio="xMinYMin meet" x="226.3" y="-959.15"/>
<text xml:space="preserve" text-anchor="middle" x="276.7" y="-838.95" font-family="Sans-Serif" font-size="10.00" fill="#2d3436">hotfix/*</text>
<text xml:space="preserve" text-anchor="middle" x="276.7" y="-827.7" font-family="Sans-Serif" font-size="10.00" fill="#2d3436">(urgent fixes)</text>
</g>
<!-- e4a7adb9b8fd4af6bc3a4b5d40dbe633&#45;&gt;6473001e2a2d42fa982f062cf67041b9 -->
<g id="edge5" class="edge">
<title>e4a7adb9b8fd4af6bc3a4b5d40dbe633&#45;&gt;6473001e2a2d42fa982f062cf67041b9</title>
<path fill="none" stroke="#7b8894" d="M116.77,-828.48C116.77,-828.48 214.86,-828.48 214.86,-828.48"/>
<polygon fill="#7b8894" stroke="#7b8894" points="214.86,-831.98 224.86,-828.48 214.86,-824.98 214.86,-831.98"/>
<text xml:space="preserve" text-anchor="middle" x="171.55" y="-885.9" font-family="Sans-Serif" font-size="13.00" fill="#2d3436">urgent fix</text>
</g>
<!-- 22e80f0304114dda8c00d49670eaf396 -->
<g id="node7" class="node">
<title>22e80f0304114dda8c00d49670eaf396</title>
<image xlink:href="/Users/colin/.local/share/uv/default-env/lib/python3.12/site-packages/resources/onprem/ci/github-actions.png" width="100.8px" height="100.8px" preserveAspectRatio="xMinYMin meet" x="732.4" y="-285.15"/>
<text xml:space="preserve" text-anchor="middle" x="782.8" y="-164.95" font-family="Sans-Serif" font-size="10.00" fill="#2d3436">Release Workflow</text>
<text xml:space="preserve" text-anchor="middle" x="782.8" y="-153.7" font-family="Sans-Serif" font-size="10.00" fill="#2d3436">(publish)</text>
</g>
<!-- e4a7adb9b8fd4af6bc3a4b5d40dbe633&#45;&gt;22e80f0304114dda8c00d49670eaf396 -->
<g id="edge10" class="edge">
<title>e4a7adb9b8fd4af6bc3a4b5d40dbe633&#45;&gt;22e80f0304114dda8c00d49670eaf396</title>
<path fill="none" stroke="#7b8894" d="M50,-668.13C50,-522.36 50,-234.75 50,-234.75 50,-234.75 720.92,-234.75 720.92,-234.75"/>
<polygon fill="#7b8894" stroke="#7b8894" points="720.92,-238.25 730.92,-234.75 720.92,-231.25 720.92,-238.25"/>
<text xml:space="preserve" text-anchor="middle" x="409.6" y="-306.9" font-family="Sans-Serif" font-size="13.00" fill="#2d3436">tag v*.*.*</text>
</g>
<!-- 94e3d9c91af0449ea812472b9abd99ab -->
<g id="node2" class="node">
<title>94e3d9c91af0449ea812472b9abd99ab</title>
<image xlink:href="/Users/colin/.local/share/uv/default-env/lib/python3.12/site-packages/resources/onprem/vcs/github.png" width="100.8px" height="100.8px" preserveAspectRatio="xMinYMin meet" x="492.1" y="-792.15"/>
<text xml:space="preserve" text-anchor="middle" x="542.5" y="-671.95" font-family="Sans-Serif" font-size="10.00" fill="#2d3436">develop</text>
<text xml:space="preserve" text-anchor="middle" x="542.5" y="-660.7" font-family="Sans-Serif" font-size="10.00" fill="#2d3436">(integration)</text>
</g>
<!-- 40b7b9b15ef24dfdbd427d2dfd19806a -->
<g id="node4" class="node">
<title>40b7b9b15ef24dfdbd427d2dfd19806a</title>
<image xlink:href="/Users/colin/.local/share/uv/default-env/lib/python3.12/site-packages/resources/onprem/vcs/github.png" width="100.8px" height="100.8px" preserveAspectRatio="xMinYMin meet" x="732.4" y="-730.15"/>
<text xml:space="preserve" text-anchor="middle" x="782.8" y="-609.95" font-family="Sans-Serif" font-size="10.00" fill="#2d3436">release/*</text>
<text xml:space="preserve" text-anchor="middle" x="782.8" y="-598.7" font-family="Sans-Serif" font-size="10.00" fill="#2d3436">(release prep)</text>
</g>
<!-- 94e3d9c91af0449ea812472b9abd99ab&#45;&gt;40b7b9b15ef24dfdbd427d2dfd19806a -->
<g id="edge2" class="edge">
<title>94e3d9c91af0449ea812472b9abd99ab&#45;&gt;40b7b9b15ef24dfdbd427d2dfd19806a</title>
<path fill="none" stroke="#7b8894" d="M592.87,-728.02C592.87,-728.02 720.98,-728.02 720.98,-728.02"/>
<polygon fill="#7b8894" stroke="#7b8894" points="720.98,-731.52 730.98,-728.02 720.98,-724.52 720.98,-731.52"/>
<text xml:space="preserve" text-anchor="middle" x="662.65" y="-742.9" font-family="Sans-Serif" font-size="13.00" fill="#2d3436">create release</text>
</g>
<!-- 62616924de0d4462ac642d3fdb4187c4 -->
<g id="node6" class="node">
<title>62616924de0d4462ac642d3fdb4187c4</title>
<image xlink:href="/Users/colin/.local/share/uv/default-env/lib/python3.12/site-packages/resources/onprem/ci/github-actions.png" width="100.8px" height="100.8px" preserveAspectRatio="xMinYMin meet" x="732.4" y="-494.15"/>
<text xml:space="preserve" text-anchor="middle" x="782.8" y="-373.95" font-family="Sans-Serif" font-size="10.00" fill="#2d3436">CI Workflow</text>
<text xml:space="preserve" text-anchor="middle" x="782.8" y="-362.7" font-family="Sans-Serif" font-size="10.00" fill="#2d3436">(test &amp; build)</text>
</g>
<!-- 94e3d9c91af0449ea812472b9abd99ab&#45;&gt;62616924de0d4462ac642d3fdb4187c4 -->
<g id="edge9" class="edge">
<title>94e3d9c91af0449ea812472b9abd99ab&#45;&gt;62616924de0d4462ac642d3fdb4187c4</title>
<path fill="none" stroke="#7b8894" d="M542,-659.15C542,-579.63 542,-471.35 542,-471.35 542,-471.35 721.1,-471.35 721.1,-471.35"/>
<polygon fill="#7b8894" stroke="#7b8894" points="721.1,-474.85 731.1,-471.35 721.1,-467.85 721.1,-474.85"/>
<text xml:space="preserve" text-anchor="middle" x="662.65" y="-574.9" font-family="Sans-Serif" font-size="13.00" fill="#2d3436">push</text>
</g>
<!-- ce7549b0abe445f7b9bfa2f3837c46a9 -->
<g id="node3" class="node">
<title>ce7549b0abe445f7b9bfa2f3837c46a9</title>
<image xlink:href="/Users/colin/.local/share/uv/default-env/lib/python3.12/site-packages/resources/onprem/vcs/github.png" width="100.8px" height="100.8px" preserveAspectRatio="xMinYMin meet" x="226.3" y="-750.15"/>
<text xml:space="preserve" text-anchor="middle" x="276.7" y="-629.95" font-family="Sans-Serif" font-size="10.00" fill="#2d3436">feature/*</text>
<text xml:space="preserve" text-anchor="middle" x="276.7" y="-618.7" font-family="Sans-Serif" font-size="10.00" fill="#2d3436">(new features)</text>
</g>
<!-- ce7549b0abe445f7b9bfa2f3837c46a9&#45;&gt;94e3d9c91af0449ea812472b9abd99ab -->
<g id="edge1" class="edge">
<title>ce7549b0abe445f7b9bfa2f3837c46a9&#45;&gt;94e3d9c91af0449ea812472b9abd99ab</title>
<path fill="none" stroke="#7b8894" d="M327.01,-720.75C327.01,-720.75 480.88,-720.75 480.88,-720.75"/>
<polygon fill="#7b8894" stroke="#7b8894" points="480.88,-724.25 490.88,-720.75 480.88,-717.25 480.88,-724.25"/>
<text xml:space="preserve" text-anchor="middle" x="409.6" y="-721.9" font-family="Sans-Serif" font-size="13.00" fill="#2d3436">merge via PR</text>
</g>
<!-- ce7549b0abe445f7b9bfa2f3837c46a9&#45;&gt;62616924de0d4462ac642d3fdb4187c4 -->
<g id="edge8" class="edge">
<title>ce7549b0abe445f7b9bfa2f3837c46a9&#45;&gt;62616924de0d4462ac642d3fdb4187c4</title>
<path fill="none" stroke="#7b8894" d="M277,-616.96C277,-533.25 277,-416.15 277,-416.15 277,-416.15 720.94,-416.15 720.94,-416.15"/>
<polygon fill="#7b8894" stroke="#7b8894" points="720.94,-419.65 730.94,-416.15 720.94,-412.65 720.94,-419.65"/>
<text xml:space="preserve" text-anchor="middle" x="542.5" y="-464.9" font-family="Sans-Serif" font-size="13.00" fill="#2d3436">push</text>
</g>
<!-- 40b7b9b15ef24dfdbd427d2dfd19806a&#45;&gt;e4a7adb9b8fd4af6bc3a4b5d40dbe633 -->
<g id="edge3" class="edge">
<title>40b7b9b15ef24dfdbd427d2dfd19806a&#45;&gt;e4a7adb9b8fd4af6bc3a4b5d40dbe633</title>
<path fill="none" stroke="#7b8894" d="M732.47,-606.95C572.01,-606.95 83,-606.95 83,-606.95 83,-606.95 83,-656.84 83,-656.84"/>
<polygon fill="#7b8894" stroke="#7b8894" points="79.5,-656.84 83,-666.84 86.5,-656.84 79.5,-656.84"/>
<text xml:space="preserve" text-anchor="middle" x="409.6" y="-615.9" font-family="Sans-Serif" font-size="13.00" fill="#2d3436">merge when ready</text>
</g>
<!-- 40b7b9b15ef24dfdbd427d2dfd19806a&#45;&gt;94e3d9c91af0449ea812472b9abd99ab -->
<g id="edge4" class="edge">
<title>40b7b9b15ef24dfdbd427d2dfd19806a&#45;&gt;94e3d9c91af0449ea812472b9abd99ab</title>
<path fill="none" stroke="#7b8894" d="M732.43,-693.48C732.43,-693.48 604.32,-693.48 604.32,-693.48"/>
<polygon fill="#7b8894" stroke="#7b8894" points="604.32,-689.98 594.32,-693.48 604.32,-696.98 604.32,-689.98"/>
<text xml:space="preserve" text-anchor="middle" x="662.65" y="-680.9" font-family="Sans-Serif" font-size="13.00" fill="#2d3436">merge back</text>
</g>
<!-- 6473001e2a2d42fa982f062cf67041b9&#45;&gt;e4a7adb9b8fd4af6bc3a4b5d40dbe633 -->
<g id="edge6" class="edge">
<title>6473001e2a2d42fa982f062cf67041b9&#45;&gt;e4a7adb9b8fd4af6bc3a4b5d40dbe633</title>
<path fill="none" stroke="#7b8894" d="M226.33,-831.02C226.33,-831.02 128.24,-831.02 128.24,-831.02"/>
<polygon fill="#7b8894" stroke="#7b8894" points="128.24,-827.52 118.24,-831.02 128.24,-834.52 128.24,-827.52"/>
<text xml:space="preserve" text-anchor="middle" x="171.55" y="-775.9" font-family="Sans-Serif" font-size="13.00" fill="#2d3436">merge</text>
</g>
<!-- 6473001e2a2d42fa982f062cf67041b9&#45;&gt;94e3d9c91af0449ea812472b9abd99ab -->
<g id="edge7" class="edge">
<title>6473001e2a2d42fa982f062cf67041b9&#45;&gt;94e3d9c91af0449ea812472b9abd99ab</title>
<path fill="none" stroke="#7b8894" d="M277,-826.12C277,-812.94 277,-803.55 277,-803.55 277,-803.55 480.74,-803.55 480.74,-803.55"/>
<polygon fill="#7b8894" stroke="#7b8894" points="480.74,-807.05 490.74,-803.55 480.74,-800.05 480.74,-807.05"/>
<text xml:space="preserve" text-anchor="middle" x="409.6" y="-856.9" font-family="Sans-Serif" font-size="13.00" fill="#2d3436">merge back</text>
</g>
<!-- 0bf211c7fa1f4fb581c76fef919b129d -->
<g id="node8" class="node">
<title>0bf211c7fa1f4fb581c76fef919b129d</title>
<image xlink:href="/Users/colin/.local/share/uv/default-env/lib/python3.12/site-packages/resources/onprem/vcs/github.png" width="100.8px" height="100.8px" preserveAspectRatio="xMinYMin meet" x="888.2" y="-364.15"/>
<text xml:space="preserve" text-anchor="middle" x="938.6" y="-247.1" font-family="Sans-Serif" font-size="10.00" fill="#2d3436">GitHub Release</text>
</g>
<!-- 22e80f0304114dda8c00d49670eaf396&#45;&gt;0bf211c7fa1f4fb581c76fef919b129d -->
<g id="edge11" class="edge">
<title>22e80f0304114dda8c00d49670eaf396&#45;&gt;0bf211c7fa1f4fb581c76fef919b129d</title>
<path fill="none" stroke="#7b8894" d="M832.95,-281.45C832.95,-281.45 876.76,-281.45 876.76,-281.45"/>
<polygon fill="#7b8894" stroke="#7b8894" points="876.76,-284.95 886.76,-281.45 876.76,-277.95 876.76,-284.95"/>
</g>
<!-- 54211664c00b4e48bdcf7099c780bc88 -->
<g id="node9" class="node">
<title>54211664c00b4e48bdcf7099c780bc88</title>
<image xlink:href="/Users/colin/.local/share/uv/default-env/lib/python3.12/site-packages/resources/generic/blank/blank.png" width="100.8px" height="100.8px" preserveAspectRatio="xMinYMin meet" x="888.2" y="-170.15"/>
<text xml:space="preserve" text-anchor="middle" x="938.6" y="-49.95" font-family="Sans-Serif" font-size="10.00" fill="#2d3436">npm Publish</text>
<text xml:space="preserve" text-anchor="middle" x="938.6" y="-38.7" font-family="Sans-Serif" font-size="10.00" fill="#2d3436">(optional)</text>
</g>
<!-- 22e80f0304114dda8c00d49670eaf396&#45;&gt;54211664c00b4e48bdcf7099c780bc88 -->
<g id="edge12" class="edge">
<title>22e80f0304114dda8c00d49670eaf396&#45;&gt;54211664c00b4e48bdcf7099c780bc88</title>
<path fill="none" stroke="#7b8894" d="M832.95,-177.25C832.95,-177.25 876.76,-177.25 876.76,-177.25"/>
<polygon fill="#7b8894" stroke="#7b8894" points="876.76,-180.75 886.76,-177.25 876.76,-173.75 876.76,-180.75"/>
</g>
</g>
</svg>
