<?xml version="1.0" encoding="UTF-8" standalone="no"?>
<!DOCTYPE svg PUBLIC "-//W3C//DTD SVG 1.1//EN"
 "http://www.w3.org/Graphics/SVG/1.1/DTD/svg11.dtd">
<!-- Generated by graphviz version 14.0.2 (20251019.1705)
 -->
<!-- Title: Package Release Workflow Pages: 1 -->
<svg width="940pt" height="973pt"
 viewBox="0.00 0.00 940.00 973.00" xmlns="http://www.w3.org/2000/svg" xmlns:xlink="http://www.w3.org/1999/xlink">
<g id="graph0" class="graph" transform="scale(1 1) rotate(0) translate(36 937.4)">
<title>Package Release Workflow</title>
<polygon fill="white" stroke="none" points="-36,36 -36,-937.4 904,-937.4 904,36 -36,36"/>
<text xml:space="preserve" text-anchor="middle" x="434" y="-5.35" font-family="Sans-Serif" font-size="12.00" fill="#2d3436">Package Release Workflow</text>
<g id="clust1" class="cluster">
<title>cluster_Package Release Triggers</title>
<path fill="#e5f5fd" stroke="#aeb6be" d="M28,-691.05C28,-691.05 840,-691.05 840,-691.05 846,-691.05 852,-697.05 852,-703.05 852,-703.05 852,-881.4 852,-881.4 852,-887.4 846,-893.4 840,-893.4 840,-893.4 28,-893.4 28,-893.4 22,-893.4 16,-887.4 16,-881.4 16,-881.4 16,-703.05 16,-703.05 16,-697.05 22,-691.05 28,-691.05"/>
<text xml:space="preserve" text-anchor="middle" x="94.88" y="-878" font-family="Sans-Serif" font-size="12.00" fill="#2d3436">Package Release Triggers</text>
</g>
<g id="clust2" class="cluster">
<title>cluster_Reusable Workflows</title>
<path fill="#e5f5fd" stroke="#aeb6be" d="M20,-224.35C20,-224.35 848,-224.35 848,-224.35 854,-224.35 860,-230.35 860,-236.35 860,-236.35 860,-671.05 860,-671.05 860,-677.05 854,-683.05 848,-683.05 848,-683.05 20,-683.05 20,-683.05 14,-683.05 8,-677.05 8,-671.05 8,-671.05 8,-236.35 8,-236.35 8,-230.35 14,-224.35 20,-224.35"/>
<text xml:space="preserve" text-anchor="middle" x="71.12" y="-667.65" font-family="Sans-Serif" font-size="12.00" fill="#2d3436">Reusable Workflows</text>
</g>
<g id="clust3" class="cluster">
<title>cluster_Python Release</title>
<path fill="#ebf3e7" stroke="#aeb6be" d="M28,-232.35C28,-232.35 120,-232.35 120,-232.35 126,-232.35 132,-238.35 132,-244.35 132,-244.35 132,-642.3 132,-642.3 132,-648.3 126,-654.3 120,-654.3 120,-654.3 28,-654.3 28,-654.3 22,-654.3 16,-648.3 16,-642.3 16,-642.3 16,-244.35 16,-244.35 16,-238.35 22,-232.35 28,-232.35"/>
<text xml:space="preserve" text-anchor="middle" x="66.75" y="-638.9" font-family="Sans-Serif" font-size="12.00" fill="#2d3436">Python Release</text>
</g>
<g id="clust4" class="cluster">
<title>cluster_Rust Release</title>
<path fill="#ebf3e7" stroke="#aeb6be" d="M172,-232.35C172,-232.35 264,-232.35 264,-232.35 270,-232.35 276,-238.35 276,-244.35 276,-244.35 276,-642.3 276,-642.3 276,-648.3 270,-654.3 264,-654.3 264,-654.3 172,-654.3 172,-654.3 166,-654.3 160,-648.3 160,-642.3 160,-642.3 160,-244.35 160,-244.35 160,-238.35 166,-232.35 172,-232.35"/>
<text xml:space="preserve" text-anchor="middle" x="204.38" y="-638.9" font-family="Sans-Serif" font-size="12.00" fill="#2d3436">Rust Release</text>
</g>
<g id="clust5" class="cluster">
<title>cluster_Go Release</title>
<path fill="#ebf3e7" stroke="#aeb6be" d="M316,-232.35C316,-232.35 408,-232.35 408,-232.35 414,-232.35 420,-238.35 420,-244.35 420,-244.35 420,-642.3 420,-642.3 420,-648.3 414,-654.3 408,-654.3 408,-654.3 316,-654.3 316,-654.3 310,-654.3 304,-648.3 304,-642.3 304,-642.3 304,-244.35 304,-244.35 304,-238.35 310,-232.35 316,-232.35"/>
<text xml:space="preserve" text-anchor="middle" x="343.88" y="-638.9" font-family="Sans-Serif" font-size="12.00" fill="#2d3436">Go Release</text>
</g>
<g id="clust6" class="cluster">
<title>cluster_C++ Release</title>
<path fill="#ebf3e7" stroke="#aeb6be" d="M460,-232.35C460,-232.35 552,-232.35 552,-232.35 558,-232.35 564,-238.35 564,-244.35 564,-244.35 564,-642.3 564,-642.3 564,-648.3 558,-654.3 552,-654.3 552,-654.3 460,-654.3 460,-654.3 454,-654.3 448,-648.3 448,-642.3 448,-642.3 448,-244.35 448,-244.35 448,-238.35 454,-232.35 460,-232.35"/>
<text xml:space="preserve" text-anchor="middle" x="491.25" y="-638.9" font-family="Sans-Serif" font-size="12.00" fill="#2d3436">C++ Release</text>
</g>
<g id="clust7" class="cluster">
<title>cluster_Java Release</title>
<path fill="#ebf3e7" stroke="#aeb6be" d="M604,-232.35C604,-232.35 696,-232.35 696,-232.35 702,-232.35 708,-238.35 708,-244.35 708,-244.35 708,-627.9 708,-627.9 708,-633.9 702,-639.9 696,-639.9 696,-639.9 604,-639.9 604,-639.9 598,-639.9 592,-633.9 592,-627.9 592,-627.9 592,-244.35 592,-244.35 592,-238.35 598,-232.35 604,-232.35"/>
<text xml:space="preserve" text-anchor="middle" x="636.75" y="-624.5" font-family="Sans-Serif" font-size="12.00" fill="#2d3436">Java Release</text>
</g>
<g id="clust8" class="cluster">
<title>cluster_Swift Release</title>
<path fill="#ebf3e7" stroke="#aeb6be" d="M748,-232.35C748,-232.35 840,-232.35 840,-232.35 846,-232.35 852,-238.35 852,-244.35 852,-244.35 852,-627.9 852,-627.9 852,-633.9 846,-639.9 840,-639.9 840,-639.9 748,-639.9 748,-639.9 742,-639.9 736,-633.9 736,-627.9 736,-627.9 736,-244.35 736,-244.35 736,-238.35 742,-232.35 748,-232.35"/>
<text xml:space="preserve" text-anchor="middle" x="781.12" y="-624.5" font-family="Sans-Serif" font-size="12.00" fill="#2d3436">Swift Release</text>
</g>
<!-- 8f514ef4c09f49eaad11c9b7e6678a1a -->
<g id="node1" class="node">
<title>8f514ef4c09f49eaad11c9b7e6678a1a</title>
<image xlink:href="/Users/colin/.local/share/uv/default-env/lib/python3.12/site-packages/resources/onprem/vcs/github.png" width="100.8px" height="100.8px" preserveAspectRatio="xMinYMin meet" x="23.6" y="-832.25"/>
<text xml:space="preserve" text-anchor="middle" x="74" y="-712.05" font-family="Sans-Serif" font-size="10.00" fill="#2d3436">package&#45;{a,b,c}</text>
<text xml:space="preserve" text-anchor="middle" x="74" y="-700.8" font-family="Sans-Serif" font-size="10.00" fill="#2d3436">@v*.*.*</text>
</g>
<!-- dc8ceeaf0d4b4cacbede3869fcc1c039 -->
<g id="node7" class="node">
<title>dc8ceeaf0d4b4cacbede3869fcc1c039</title>
<image xlink:href="/Users/colin/.local/share/uv/default-env/lib/python3.12/site-packages/resources/onprem/ci/github-actions.png" width="100.8px" height="100.8px" preserveAspectRatio="xMinYMin meet" x="23.6" y="-593.15"/>
<text xml:space="preserve" text-anchor="middle" x="74" y="-472.95" font-family="Sans-Serif" font-size="10.00" fill="#2d3436">python&#45;package</text>
<text xml:space="preserve" text-anchor="middle" x="74" y="-461.7" font-family="Sans-Serif" font-size="10.00" fill="#2d3436">&#45;release.yml</text>
</g>
<!-- 8f514ef4c09f49eaad11c9b7e6678a1a&#45;&gt;dc8ceeaf0d4b4cacbede3869fcc1c039 -->
<g id="edge1" class="edge">
<title>8f514ef4c09f49eaad11c9b7e6678a1a&#45;&gt;dc8ceeaf0d4b4cacbede3869fcc1c039</title>
<path fill="none" stroke="#7b8894" d="M74,-699.23C74,-699.23 74,-636.89 74,-636.89"/>
<polygon fill="#7b8894" stroke="#7b8894" points="77.5,-636.89 74,-626.89 70.5,-636.89 77.5,-636.89"/>
</g>
<!-- f92583376fe54349821880e1c11293f3 -->
<g id="node2" class="node">
<title>f92583376fe54349821880e1c11293f3</title>
<image xlink:href="/Users/colin/.local/share/uv/default-env/lib/python3.12/site-packages/resources/onprem/vcs/github.png" width="100.8px" height="100.8px" preserveAspectRatio="xMinYMin meet" x="167.6" y="-832.25"/>
<text xml:space="preserve" text-anchor="middle" x="218" y="-712.05" font-family="Sans-Serif" font-size="10.00" fill="#2d3436">package&#45;{e,i}</text>
<text xml:space="preserve" text-anchor="middle" x="218" y="-700.8" font-family="Sans-Serif" font-size="10.00" fill="#2d3436">@v*.*.*</text>
</g>
<!-- f50972bfa8f14443a308cee22803e56c -->
<g id="node9" class="node">
<title>f50972bfa8f14443a308cee22803e56c</title>
<image xlink:href="/Users/colin/.local/share/uv/default-env/lib/python3.12/site-packages/resources/onprem/ci/github-actions.png" width="100.8px" height="100.8px" preserveAspectRatio="xMinYMin meet" x="167.6" y="-593.15"/>
<text xml:space="preserve" text-anchor="middle" x="218" y="-472.95" font-family="Sans-Serif" font-size="10.00" fill="#2d3436">rust&#45;package</text>
<text xml:space="preserve" text-anchor="middle" x="218" y="-461.7" font-family="Sans-Serif" font-size="10.00" fill="#2d3436">&#45;release.yml</text>
</g>
<!-- f92583376fe54349821880e1c11293f3&#45;&gt;f50972bfa8f14443a308cee22803e56c -->
<g id="edge4" class="edge">
<title>f92583376fe54349821880e1c11293f3&#45;&gt;f50972bfa8f14443a308cee22803e56c</title>
<path fill="none" stroke="#7b8894" d="M218,-699.23C218,-699.23 218,-636.89 218,-636.89"/>
<polygon fill="#7b8894" stroke="#7b8894" points="221.5,-636.89 218,-626.89 214.5,-636.89 221.5,-636.89"/>
</g>
<!-- b8783534cf3e4434a6a7c7fd3fcc7aa6 -->
<g id="node3" class="node">
<title>b8783534cf3e4434a6a7c7fd3fcc7aa6</title>
<image xlink:href="/Users/colin/.local/share/uv/default-env/lib/python3.12/site-packages/resources/onprem/vcs/github.png" width="100.8px" height="100.8px" preserveAspectRatio="xMinYMin meet" x="311.6" y="-832.25"/>
<text xml:space="preserve" text-anchor="middle" x="362" y="-712.05" font-family="Sans-Serif" font-size="10.00" fill="#2d3436">package&#45;g</text>
<text xml:space="preserve" text-anchor="middle" x="362" y="-700.8" font-family="Sans-Serif" font-size="10.00" fill="#2d3436">@v*.*.*</text>
</g>
<!-- 305738087c7841d0a4271a976deb5f2a -->
<g id="node11" class="node">
<title>305738087c7841d0a4271a976deb5f2a</title>
<image xlink:href="/Users/colin/.local/share/uv/default-env/lib/python3.12/site-packages/resources/onprem/ci/github-actions.png" width="100.8px" height="100.8px" preserveAspectRatio="xMinYMin meet" x="311.6" y="-593.15"/>
<text xml:space="preserve" text-anchor="middle" x="362" y="-472.95" font-family="Sans-Serif" font-size="10.00" fill="#2d3436">go&#45;package</text>
<text xml:space="preserve" text-anchor="middle" x="362" y="-461.7" font-family="Sans-Serif" font-size="10.00" fill="#2d3436">&#45;release.yml</text>
</g>
<!-- b8783534cf3e4434a6a7c7fd3fcc7aa6&#45;&gt;305738087c7841d0a4271a976deb5f2a -->
<g id="edge7" class="edge">
<title>b8783534cf3e4434a6a7c7fd3fcc7aa6&#45;&gt;305738087c7841d0a4271a976deb5f2a</title>
<path fill="none" stroke="#7b8894" d="M362,-699.23C362,-699.23 362,-636.89 362,-636.89"/>
<polygon fill="#7b8894" stroke="#7b8894" points="365.5,-636.89 362,-626.89 358.5,-636.89 365.5,-636.89"/>
</g>
<!-- 4fcfecad26d94b40857096cadbd3c873 -->
<g id="node4" class="node">
<title>4fcfecad26d94b40857096cadbd3c873</title>
<image xlink:href="/Users/colin/.local/share/uv/default-env/lib/python3.12/site-packages/resources/onprem/vcs/github.png" width="100.8px" height="100.8px" preserveAspectRatio="xMinYMin meet" x="455.6" y="-832.25"/>
<text xml:space="preserve" text-anchor="middle" x="506" y="-712.05" font-family="Sans-Serif" font-size="10.00" fill="#2d3436">package&#45;d</text>
<text xml:space="preserve" text-anchor="middle" x="506" y="-700.8" font-family="Sans-Serif" font-size="10.00" fill="#2d3436">@v*.*.*</text>
</g>
<!-- c563d43a84d746ad8c3e1a9b54e46e22 -->
<g id="node13" class="node">
<title>c563d43a84d746ad8c3e1a9b54e46e22</title>
<image xlink:href="/Users/colin/.local/share/uv/default-env/lib/python3.12/site-packages/resources/onprem/ci/github-actions.png" width="100.8px" height="100.8px" preserveAspectRatio="xMinYMin meet" x="455.6" y="-593.15"/>
<text xml:space="preserve" text-anchor="middle" x="506" y="-472.95" font-family="Sans-Serif" font-size="10.00" fill="#2d3436">cpp&#45;package</text>
<text xml:space="preserve" text-anchor="middle" x="506" y="-461.7" font-family="Sans-Serif" font-size="10.00" fill="#2d3436">&#45;release.yml</text>
</g>
<!-- 4fcfecad26d94b40857096cadbd3c873&#45;&gt;c563d43a84d746ad8c3e1a9b54e46e22 -->
<g id="edge10" class="edge">
<title>4fcfecad26d94b40857096cadbd3c873&#45;&gt;c563d43a84d746ad8c3e1a9b54e46e22</title>
<path fill="none" stroke="#7b8894" d="M506,-699.23C506,-699.23 506,-636.89 506,-636.89"/>
<polygon fill="#7b8894" stroke="#7b8894" points="509.5,-636.89 506,-626.89 502.5,-636.89 509.5,-636.89"/>
</g>
<!-- 86bbbeaf31c84d9db5acafd72eb7f122 -->
<g id="node5" class="node">
<title>86bbbeaf31c84d9db5acafd72eb7f122</title>
<image xlink:href="/Users/colin/.local/share/uv/default-env/lib/python3.12/site-packages/resources/onprem/vcs/github.png" width="100.8px" height="100.8px" preserveAspectRatio="xMinYMin meet" x="599.6" y="-832.25"/>
<text xml:space="preserve" text-anchor="middle" x="650" y="-712.05" font-family="Sans-Serif" font-size="10.00" fill="#2d3436">package&#45;h</text>
<text xml:space="preserve" text-anchor="middle" x="650" y="-700.8" font-family="Sans-Serif" font-size="10.00" fill="#2d3436">@v*.*.*</text>
</g>
<!-- b719b5b86f0b4f0a903041b26f3399fb -->
<g id="node15" class="node">
<title>b719b5b86f0b4f0a903041b26f3399fb</title>
<image xlink:href="/Users/colin/.local/share/uv/default-env/lib/python3.12/site-packages/resources/onprem/ci/github-actions.png" width="100.8px" height="100.8px" preserveAspectRatio="xMinYMin meet" x="599.6" y="-593.15"/>
<text xml:space="preserve" text-anchor="middle" x="650" y="-476.1" font-family="Sans-Serif" font-size="10.00" fill="#2d3436">java&#45;release.yml</text>
</g>
<!-- 86bbbeaf31c84d9db5acafd72eb7f122&#45;&gt;b719b5b86f0b4f0a903041b26f3399fb -->
<g id="edge13" class="edge">
<title>86bbbeaf31c84d9db5acafd72eb7f122&#45;&gt;b719b5b86f0b4f0a903041b26f3399fb</title>
<path fill="none" stroke="#7b8894" d="M650,-699.23C650,-699.23 650,-622.62 650,-622.62"/>
<polygon fill="#7b8894" stroke="#7b8894" points="653.5,-622.62 650,-612.62 646.5,-622.62 653.5,-622.62"/>
</g>
<!-- f6ea755158564d9d8d32d8e0ec8895f4 -->
<g id="node6" class="node">
<title>f6ea755158564d9d8d32d8e0ec8895f4</title>
<image xlink:href="/Users/colin/.local/share/uv/default-env/lib/python3.12/site-packages/resources/onprem/vcs/github.png" width="100.8px" height="100.8px" preserveAspectRatio="xMinYMin meet" x="743.6" y="-832.25"/>
<text xml:space="preserve" text-anchor="middle" x="794" y="-712.05" font-family="Sans-Serif" font-size="10.00" fill="#2d3436">package&#45;f</text>
<text xml:space="preserve" text-anchor="middle" x="794" y="-700.8" font-family="Sans-Serif" font-size="10.00" fill="#2d3436">@v*.*.*</text>
</g>
<!-- 3c02bccbb76f464aa4fe72597fcaf706 -->
<g id="node17" class="node">
<title>3c02bccbb76f464aa4fe72597fcaf706</title>
<image xlink:href="/Users/colin/.local/share/uv/default-env/lib/python3.12/site-packages/resources/onprem/ci/github-actions.png" width="100.8px" height="100.8px" preserveAspectRatio="xMinYMin meet" x="743.6" y="-593.15"/>
<text xml:space="preserve" text-anchor="middle" x="794" y="-476.1" font-family="Sans-Serif" font-size="10.00" fill="#2d3436">swift&#45;release.yml</text>
</g>
<!-- f6ea755158564d9d8d32d8e0ec8895f4&#45;&gt;3c02bccbb76f464aa4fe72597fcaf706 -->
<g id="edge16" class="edge">
<title>f6ea755158564d9d8d32d8e0ec8895f4&#45;&gt;3c02bccbb76f464aa4fe72597fcaf706</title>
<path fill="none" stroke="#7b8894" d="M794,-699.23C794,-699.23 794,-622.62 794,-622.62"/>
<polygon fill="#7b8894" stroke="#7b8894" points="797.5,-622.62 794,-612.62 790.5,-622.62 797.5,-622.62"/>
</g>
<!-- 61fb13453242459bac3b0b10e59e656c -->
<g id="node8" class="node">
<title>61fb13453242459bac3b0b10e59e656c</title>
<image xlink:href="/Users/colin/.local/share/uv/default-env/lib/python3.12/site-packages/resources/programming/language/python.png" width="100.8px" height="100.8px" preserveAspectRatio="xMinYMin meet" x="23.6" y="-373.55"/>
<text xml:space="preserve" text-anchor="middle" x="74" y="-253.35" font-family="Sans-Serif" font-size="10.00" fill="#2d3436">Build for</text>
<text xml:space="preserve" text-anchor="middle" x="74" y="-242.1" font-family="Sans-Serif" font-size="10.00" fill="#2d3436">multiple platforms</text>
</g>
<!-- dc8ceeaf0d4b4cacbede3869fcc1c039&#45;&gt;61fb13453242459bac3b0b10e59e656c -->
<g id="edge2" class="edge">
<title>dc8ceeaf0d4b4cacbede3869fcc1c039&#45;&gt;61fb13453242459bac3b0b10e59e656c</title>
<path fill="none" stroke="#7b8894" d="M74,-460.04C74,-460.04 74,-417.3 74,-417.3"/>
<polygon fill="#7b8894" stroke="#7b8894" points="77.5,-417.3 74,-407.3 70.5,-417.3 77.5,-417.3"/>
</g>
<!-- 42824bb4d57a475eac8a3fd41a936b40 -->
<g id="node19" class="node">
<title>42824bb4d57a475eac8a3fd41a936b40</title>
<image xlink:href="/Users/colin/.local/share/uv/default-env/lib/python3.12/site-packages/resources/onprem/vcs/github.png" width="100.8px" height="100.8px" preserveAspectRatio="xMinYMin meet" x="383.6" y="-153.95"/>
<text xml:space="preserve" text-anchor="middle" x="434" y="-33.75" font-family="Sans-Serif" font-size="10.00" fill="#2d3436">GitHub</text>
<text xml:space="preserve" text-anchor="middle" x="434" y="-22.5" font-family="Sans-Serif" font-size="10.00" fill="#2d3436">Release</text>
</g>
<!-- 61fb13453242459bac3b0b10e59e656c&#45;&gt;42824bb4d57a475eac8a3fd41a936b40 -->
<g id="edge3" class="edge">
<title>61fb13453242459bac3b0b10e59e656c&#45;&gt;42824bb4d57a475eac8a3fd41a936b40</title>
<path fill="none" stroke="#7b8894" d="M74,-240.43C74,-168.5 74,-75.75 74,-75.75 74,-75.75 372.43,-75.75 372.43,-75.75"/>
<polygon fill="#7b8894" stroke="#7b8894" points="372.43,-79.25 382.43,-75.75 372.43,-72.25 372.43,-79.25"/>
</g>
<!-- 5c0f2d1c89f64d11826c2be8c4a5de92 -->
<g id="node10" class="node">
<title>5c0f2d1c89f64d11826c2be8c4a5de92</title>
<image xlink:href="/Users/colin/.local/share/uv/default-env/lib/python3.12/site-packages/resources/programming/language/rust.png" width="100.8px" height="100.8px" preserveAspectRatio="xMinYMin meet" x="167.6" y="-373.55"/>
<text xml:space="preserve" text-anchor="middle" x="218" y="-253.35" font-family="Sans-Serif" font-size="10.00" fill="#2d3436">Cross&#45;compile</text>
<text xml:space="preserve" text-anchor="middle" x="218" y="-242.1" font-family="Sans-Serif" font-size="10.00" fill="#2d3436">for targets</text>
</g>
<!-- f50972bfa8f14443a308cee22803e56c&#45;&gt;5c0f2d1c89f64d11826c2be8c4a5de92 -->
<g id="edge5" class="edge">
<title>f50972bfa8f14443a308cee22803e56c&#45;&gt;5c0f2d1c89f64d11826c2be8c4a5de92</title>
<path fill="none" stroke="#7b8894" d="M218,-460.04C218,-460.04 218,-417.3 218,-417.3"/>
<polygon fill="#7b8894" stroke="#7b8894" points="221.5,-417.3 218,-407.3 214.5,-417.3 221.5,-417.3"/>
</g>
<!-- 5c0f2d1c89f64d11826c2be8c4a5de92&#45;&gt;42824bb4d57a475eac8a3fd41a936b40 -->
<g id="edge6" class="edge">
<title>5c0f2d1c89f64d11826c2be8c4a5de92&#45;&gt;42824bb4d57a475eac8a3fd41a936b40</title>
<path fill="none" stroke="#7b8894" d="M218,-240.44C218,-188.29 218,-130.75 218,-130.75 218,-130.75 372.12,-130.75 372.12,-130.75"/>
<polygon fill="#7b8894" stroke="#7b8894" points="372.12,-134.25 382.12,-130.75 372.12,-127.25 372.12,-134.25"/>
</g>
<!-- 34f12daa7a1f49c5aafa2efbbeb2ea8d -->
<g id="node12" class="node">
<title>34f12daa7a1f49c5aafa2efbbeb2ea8d</title>
<image xlink:href="/Users/colin/.local/share/uv/default-env/lib/python3.12/site-packages/resources/programming/language/go.png" width="100.8px" height="100.8px" preserveAspectRatio="xMinYMin meet" x="311.6" y="-373.55"/>
<text xml:space="preserve" text-anchor="middle" x="362" y="-253.35" font-family="Sans-Serif" font-size="10.00" fill="#2d3436">Build</text>
<text xml:space="preserve" text-anchor="middle" x="362" y="-242.1" font-family="Sans-Serif" font-size="10.00" fill="#2d3436">binaries</text>
</g>
<!-- 305738087c7841d0a4271a976deb5f2a&#45;&gt;34f12daa7a1f49c5aafa2efbbeb2ea8d -->
<g id="edge8" class="edge">
<title>305738087c7841d0a4271a976deb5f2a&#45;&gt;34f12daa7a1f49c5aafa2efbbeb2ea8d</title>
<path fill="none" stroke="#7b8894" d="M362,-460.04C362,-460.04 362,-417.3 362,-417.3"/>
<polygon fill="#7b8894" stroke="#7b8894" points="365.5,-417.3 362,-407.3 358.5,-417.3 365.5,-417.3"/>
</g>
<!-- 34f12daa7a1f49c5aafa2efbbeb2ea8d&#45;&gt;42824bb4d57a475eac8a3fd41a936b40 -->
<g id="edge9" class="edge">
<title>34f12daa7a1f49c5aafa2efbbeb2ea8d&#45;&gt;42824bb4d57a475eac8a3fd41a936b40</title>
<path fill="none" stroke="#7b8894" d="M398,-240.44C398,-240.44 398,-197.7 398,-197.7"/>
<polygon fill="#7b8894" stroke="#7b8894" points="401.5,-197.7 398,-187.7 394.5,-197.7 401.5,-197.7"/>
</g>
<!-- 43ea7f4fee3d473b9374ac82f1af6726 -->
<g id="node14" class="node">
<title>43ea7f4fee3d473b9374ac82f1af6726</title>
<image xlink:href="/Users/colin/.local/share/uv/default-env/lib/python3.12/site-packages/resources/generic/blank/blank.png" width="100.8px" height="100.8px" preserveAspectRatio="xMinYMin meet" x="455.6" y="-373.55"/>
<text xml:space="preserve" text-anchor="middle" x="506" y="-253.35" font-family="Sans-Serif" font-size="10.00" fill="#2d3436">CMake</text>
<text xml:space="preserve" text-anchor="middle" x="506" y="-242.1" font-family="Sans-Serif" font-size="10.00" fill="#2d3436">build</text>
</g>
<!-- c563d43a84d746ad8c3e1a9b54e46e22&#45;&gt;43ea7f4fee3d473b9374ac82f1af6726 -->
<g id="edge11" class="edge">
<title>c563d43a84d746ad8c3e1a9b54e46e22&#45;&gt;43ea7f4fee3d473b9374ac82f1af6726</title>
<path fill="none" stroke="#7b8894" d="M506,-460.04C506,-460.04 506,-417.3 506,-417.3"/>
<polygon fill="#7b8894" stroke="#7b8894" points="509.5,-417.3 506,-407.3 502.5,-417.3 509.5,-417.3"/>
</g>
<!-- 43ea7f4fee3d473b9374ac82f1af6726&#45;&gt;42824bb4d57a475eac8a3fd41a936b40 -->
<g id="edge12" class="edge">
<title>43ea7f4fee3d473b9374ac82f1af6726&#45;&gt;42824bb4d57a475eac8a3fd41a936b40</title>
<path fill="none" stroke="#7b8894" d="M470,-240.44C470,-240.44 470,-197.7 470,-197.7"/>
<polygon fill="#7b8894" stroke="#7b8894" points="473.5,-197.7 470,-187.7 466.5,-197.7 473.5,-197.7"/>
</g>
<!-- f355bb3d28ae4ec0b499af9512173c2b -->
<g id="node16" class="node">
<title>f355bb3d28ae4ec0b499af9512173c2b</title>
<image xlink:href="/Users/colin/.local/share/uv/default-env/lib/python3.12/site-packages/resources/programming/language/java.png" width="100.8px" height="100.8px" preserveAspectRatio="xMinYMin meet" x="599.6" y="-373.55"/>
<text xml:space="preserve" text-anchor="middle" x="650" y="-253.35" font-family="Sans-Serif" font-size="10.00" fill="#2d3436">Maven</text>
<text xml:space="preserve" text-anchor="middle" x="650" y="-242.1" font-family="Sans-Serif" font-size="10.00" fill="#2d3436">build</text>
</g>
<!-- b719b5b86f0b4f0a903041b26f3399fb&#45;&gt;f355bb3d28ae4ec0b499af9512173c2b -->
<g id="edge14" class="edge">
<title>b719b5b86f0b4f0a903041b26f3399fb&#45;&gt;f355bb3d28ae4ec0b499af9512173c2b</title>
<path fill="none" stroke="#7b8894" d="M650,-474.47C650,-474.47 650,-417.18 650,-417.18"/>
<polygon fill="#7b8894" stroke="#7b8894" points="653.5,-417.18 650,-407.18 646.5,-417.18 653.5,-417.18"/>
</g>
<!-- f355bb3d28ae4ec0b499af9512173c2b&#45;&gt;42824bb4d57a475eac8a3fd41a936b40 -->
<g id="edge15" class="edge">
<title>f355bb3d28ae4ec0b499af9512173c2b&#45;&gt;42824bb4d57a475eac8a3fd41a936b40</title>
<path fill="none" stroke="#7b8894" d="M650,-240.44C650,-188.29 650,-130.75 650,-130.75 650,-130.75 495.88,-130.75 495.88,-130.75"/>
<polygon fill="#7b8894" stroke="#7b8894" points="495.88,-127.25 485.88,-130.75 495.88,-134.25 495.88,-127.25"/>
</g>
<!-- a1cab7a3c05b4083820f9e5af90c9869 -->
<g id="node18" class="node">
<title>a1cab7a3c05b4083820f9e5af90c9869</title>
<image xlink:href="/Users/colin/.local/share/uv/default-env/lib/python3.12/site-packages/resources/programming/language/swift.png" width="100.8px" height="90.5625px" preserveAspectRatio="xMinYMin meet" x="743.6" y="-368.431"/>
<text xml:space="preserve" text-anchor="middle" x="794" y="-253.35" font-family="Sans-Serif" font-size="10.00" fill="#2d3436">SPM</text>
<text xml:space="preserve" text-anchor="middle" x="794" y="-242.1" font-family="Sans-Serif" font-size="10.00" fill="#2d3436">build</text>
</g>
<!-- 3c02bccbb76f464aa4fe72597fcaf706&#45;&gt;a1cab7a3c05b4083820f9e5af90c9869 -->
<g id="edge17" class="edge">
<title>3c02bccbb76f464aa4fe72597fcaf706&#45;&gt;a1cab7a3c05b4083820f9e5af90c9869</title>
<path fill="none" stroke="#7b8894" d="M794,-474.47C794,-474.47 794,-417.18 794,-417.18"/>
<polygon fill="#7b8894" stroke="#7b8894" points="797.5,-417.18 794,-407.18 790.5,-417.18 797.5,-417.18"/>
</g>
<!-- a1cab7a3c05b4083820f9e5af90c9869&#45;&gt;42824bb4d57a475eac8a3fd41a936b40 -->
<g id="edge18" class="edge">
<title>a1cab7a3c05b4083820f9e5af90c9869&#45;&gt;42824bb4d57a475eac8a3fd41a936b40</title>
<path fill="none" stroke="#7b8894" d="M794,-240.43C794,-168.5 794,-75.75 794,-75.75 794,-75.75 495.57,-75.75 495.57,-75.75"/>
<polygon fill="#7b8894" stroke="#7b8894" points="495.57,-72.25 485.57,-75.75 495.57,-79.25 495.57,-72.25"/>
</g>
</g>
</svg>
