<?xml version="1.0" encoding="UTF-8" standalone="no"?>
<!DOCTYPE svg PUBLIC "-//W3C//DTD SVG 1.1//EN"
 "http://www.w3.org/Graphics/SVG/1.1/DTD/svg11.dtd">
<!-- Generated by graphviz version 14.0.2 (20251019.1705)
 -->
<!-- Title: Package Build Pipeline Pages: 1 -->
<svg width="364pt" height="3169pt"
 viewBox="0.00 0.00 364.00 3169.00" xmlns="http://www.w3.org/2000/svg" xmlns:xlink="http://www.w3.org/1999/xlink">
<g id="graph0" class="graph" transform="scale(1 1) rotate(0) translate(36 3133.45)">
<title>Package Build Pipeline</title>
<polygon fill="white" stroke="none" points="-36,36 -36,-3133.45 328,-3133.45 328,36 -36,36"/>
<text xml:space="preserve" text-anchor="middle" x="146" y="-5.35" font-family="Sans-Serif" font-size="12.00" fill="#2d3436">Package Build Pipeline</text>
<g id="clust1" class="cluster">
<title>cluster_Build Matrix</title>
<path fill="#e5f5fd" stroke="#aeb6be" d="M20,-679.55C20,-679.55 272,-679.55 272,-679.55 278,-679.55 284,-685.55 284,-691.55 284,-691.55 284,-2911.85 284,-2911.85 284,-2917.85 278,-2923.85 272,-2923.85 272,-2923.85 20,-2923.85 20,-2923.85 14,-2923.85 8,-2917.85 8,-2911.85 8,-2911.85 8,-691.55 8,-691.55 8,-685.55 14,-679.55 20,-679.55"/>
<text xml:space="preserve" text-anchor="middle" x="47.5" y="-2908.45" font-family="Sans-Serif" font-size="12.00" fill="#2d3436">Build Matrix</text>
</g>
<g id="clust2" class="cluster">
<title>cluster_Platform Setup</title>
<path fill="#ebf3e7" stroke="#aeb6be" d="M100,-2444.35C100,-2444.35 192,-2444.35 192,-2444.35 198,-2444.35 204,-2450.35 204,-2456.35 204,-2456.35 204,-2883.1 204,-2883.1 204,-2889.1 198,-2895.1 192,-2895.1 192,-2895.1 100,-2895.1 100,-2895.1 94,-2895.1 88,-2889.1 88,-2883.1 88,-2883.1 88,-2456.35 88,-2456.35 88,-2450.35 94,-2444.35 100,-2444.35"/>
<text xml:space="preserve" text-anchor="middle" x="135.38" y="-2879.7" font-family="Sans-Serif" font-size="12.00" fill="#2d3436">Platform Setup</text>
</g>
<g id="clust3" class="cluster">
<title>cluster_Build Steps</title>
<path fill="#ebf3e7" stroke="#aeb6be" d="M100,-907.15C100,-907.15 192,-907.15 192,-907.15 198,-907.15 204,-913.15 204,-919.15 204,-919.15 204,-2415.1 204,-2415.1 204,-2421.1 198,-2427.1 192,-2427.1 192,-2427.1 100,-2427.1 100,-2427.1 94,-2427.1 88,-2421.1 88,-2415.1 88,-2415.1 88,-919.15 88,-919.15 88,-913.15 94,-907.15 100,-907.15"/>
<text xml:space="preserve" text-anchor="middle" x="126.75" y="-2411.7" font-family="Sans-Serif" font-size="12.00" fill="#2d3436">Build Steps</text>
</g>
<g id="clust4" class="cluster">
<title>cluster_Upload Artifacts</title>
<path fill="#ebf3e7" stroke="#aeb6be" d="M28,-687.55C28,-687.55 264,-687.55 264,-687.55 270,-687.55 276,-693.55 276,-699.55 276,-699.55 276,-877.9 276,-877.9 276,-883.9 270,-889.9 264,-889.9 264,-889.9 28,-889.9 28,-889.9 22,-889.9 16,-883.9 16,-877.9 16,-877.9 16,-699.55 16,-699.55 16,-693.55 22,-687.55 28,-687.55"/>
<text xml:space="preserve" text-anchor="middle" x="66" y="-874.5" font-family="Sans-Serif" font-size="12.00" fill="#2d3436">Upload Artifacts</text>
</g>
<g id="clust5" class="cluster">
<title>cluster_Release Creation</title>
<path fill="#e5f5fd" stroke="#aeb6be" d="M100,-28.75C100,-28.75 192,-28.75 192,-28.75 198,-28.75 204,-34.75 204,-40.75 204,-40.75 204,-658.3 204,-658.3 204,-664.3 198,-670.3 192,-670.3 192,-670.3 100,-670.3 100,-670.3 94,-670.3 88,-664.3 88,-658.3 88,-658.3 88,-40.75 88,-40.75 88,-34.75 94,-28.75 100,-28.75"/>
<text xml:space="preserve" text-anchor="middle" x="142.88" y="-654.9" font-family="Sans-Serif" font-size="12.00" fill="#2d3436">Release Creation</text>
</g>
<!-- 4da01e9165f4470c946e972a553e409c -->
<g id="node1" class="node">
<title>4da01e9165f4470c946e972a553e409c</title>
<image xlink:href="/Users/colin/.local/share/uv/default-env/lib/python3.12/site-packages/resources/onprem/vcs/github.png" width="100.8px" height="100.8px" preserveAspectRatio="xMinYMin meet" x="95.6" y="-3065.05"/>
<text xml:space="preserve" text-anchor="middle" x="146" y="-2944.85" font-family="Sans-Serif" font-size="10.00" fill="#2d3436">Tag Push</text>
<text xml:space="preserve" text-anchor="middle" x="146" y="-2933.6" font-family="Sans-Serif" font-size="10.00" fill="#2d3436">package&#45;*@v*.*.*</text>
</g>
<!-- 408425f4feaa4e44b064a4c7762bba18 -->
<g id="node2" class="node">
<title>408425f4feaa4e44b064a4c7762bba18</title>
<image xlink:href="/Users/colin/.local/share/uv/default-env/lib/python3.12/site-packages/resources/generic/blank/blank.png" width="100.8px" height="100.8px" preserveAspectRatio="xMinYMin meet" x="95.6" y="-2833.95"/>
<text xml:space="preserve" text-anchor="middle" x="146" y="-2713.75" font-family="Sans-Serif" font-size="10.00" fill="#2d3436">Setup Build</text>
<text xml:space="preserve" text-anchor="middle" x="146" y="-2702.5" font-family="Sans-Serif" font-size="10.00" fill="#2d3436">Matrix</text>
</g>
<!-- 4da01e9165f4470c946e972a553e409c&#45;&gt;408425f4feaa4e44b064a4c7762bba18 -->
<g id="edge1" class="edge">
<title>4da01e9165f4470c946e972a553e409c&#45;&gt;408425f4feaa4e44b064a4c7762bba18</title>
<path fill="none" stroke="#7b8894" d="M146,-2931.87C146,-2931.87 146,-2877.65 146,-2877.65"/>
<polygon fill="#7b8894" stroke="#7b8894" points="149.5,-2877.65 146,-2867.65 142.5,-2877.65 149.5,-2877.65"/>
</g>
<!-- 6c9a3b5e9337448192a18b9d8c5842d8 -->
<g id="node3" class="node">
<title>6c9a3b5e9337448192a18b9d8c5842d8</title>
<image xlink:href="/Users/colin/.local/share/uv/default-env/lib/python3.12/site-packages/resources/generic/blank/blank.png" width="100.8px" height="100.8px" preserveAspectRatio="xMinYMin meet" x="95.6" y="-2599.95"/>
<text xml:space="preserve" text-anchor="middle" x="146" y="-2476.6" font-family="Sans-Serif" font-size="10.00" fill="#2d3436">Linux x64/ARM64</text>
<text xml:space="preserve" text-anchor="middle" x="146" y="-2465.35" font-family="Sans-Serif" font-size="10.00" fill="#2d3436">macOS x64/ARM64</text>
<text xml:space="preserve" text-anchor="middle" x="146" y="-2454.1" font-family="Sans-Serif" font-size="10.00" fill="#2d3436">Windows x64</text>
</g>
<!-- 408425f4feaa4e44b064a4c7762bba18&#45;&gt;6c9a3b5e9337448192a18b9d8c5842d8 -->
<g id="edge2" class="edge">
<title>408425f4feaa4e44b064a4c7762bba18&#45;&gt;6c9a3b5e9337448192a18b9d8c5842d8</title>
<path fill="none" stroke="#7b8894" d="M146,-2701.05C146,-2701.05 146,-2658.03 146,-2658.03"/>
<polygon fill="#7b8894" stroke="#7b8894" points="149.5,-2658.03 146,-2648.03 142.5,-2658.03 149.5,-2658.03"/>
</g>
<!-- 96363abb2df94a10a4adcd0a1b56d3ba -->
<g id="node4" class="node">
<title>96363abb2df94a10a4adcd0a1b56d3ba</title>
<image xlink:href="/Users/colin/.local/share/uv/default-env/lib/python3.12/site-packages/resources/generic/blank/blank.png" width="100.8px" height="100.8px" preserveAspectRatio="xMinYMin meet" x="95.6" y="-2365.95"/>
<text xml:space="preserve" text-anchor="middle" x="146" y="-2245.75" font-family="Sans-Serif" font-size="10.00" fill="#2d3436">Checkout</text>
<text xml:space="preserve" text-anchor="middle" x="146" y="-2234.5" font-family="Sans-Serif" font-size="10.00" fill="#2d3436">Code</text>
</g>
<!-- 6c9a3b5e9337448192a18b9d8c5842d8&#45;&gt;96363abb2df94a10a4adcd0a1b56d3ba -->
<g id="edge3" class="edge">
<title>6c9a3b5e9337448192a18b9d8c5842d8&#45;&gt;96363abb2df94a10a4adcd0a1b56d3ba</title>
<path fill="none" stroke="#7b8894" d="M146,-2452.68C146,-2452.68 146,-2409.7 146,-2409.7"/>
<polygon fill="#7b8894" stroke="#7b8894" points="149.5,-2409.7 146,-2399.7 142.5,-2409.7 149.5,-2409.7"/>
</g>
<!-- eaadddd6d35c43ac87aa28c809889086 -->
<g id="node5" class="node">
<title>eaadddd6d35c43ac87aa28c809889086</title>
<image xlink:href="/Users/colin/.local/share/uv/default-env/lib/python3.12/site-packages/resources/generic/blank/blank.png" width="100.8px" height="100.8px" preserveAspectRatio="xMinYMin meet" x="95.6" y="-2146.35"/>
<text xml:space="preserve" text-anchor="middle" x="146" y="-2026.15" font-family="Sans-Serif" font-size="10.00" fill="#2d3436">Setup Build</text>
<text xml:space="preserve" text-anchor="middle" x="146" y="-2014.9" font-family="Sans-Serif" font-size="10.00" fill="#2d3436">Environment</text>
</g>
<!-- 96363abb2df94a10a4adcd0a1b56d3ba&#45;&gt;eaadddd6d35c43ac87aa28c809889086 -->
<g id="edge4" class="edge">
<title>96363abb2df94a10a4adcd0a1b56d3ba&#45;&gt;eaadddd6d35c43ac87aa28c809889086</title>
<path fill="none" stroke="#7b8894" d="M146,-2232.84C146,-2232.84 146,-2190.1 146,-2190.1"/>
<polygon fill="#7b8894" stroke="#7b8894" points="149.5,-2190.1 146,-2180.1 142.5,-2190.1 149.5,-2190.1"/>
</g>
<!-- a51ed29740254f5e8b41ecfcdf6f2b18 -->
<g id="node6" class="node">
<title>a51ed29740254f5e8b41ecfcdf6f2b18</title>
<image xlink:href="/Users/colin/.local/share/uv/default-env/lib/python3.12/site-packages/resources/generic/blank/blank.png" width="100.8px" height="100.8px" preserveAspectRatio="xMinYMin meet" x="95.6" y="-1926.75"/>
<text xml:space="preserve" text-anchor="middle" x="146" y="-1806.55" font-family="Sans-Serif" font-size="10.00" fill="#2d3436">Install</text>
<text xml:space="preserve" text-anchor="middle" x="146" y="-1795.3" font-family="Sans-Serif" font-size="10.00" fill="#2d3436">Dependencies</text>
</g>
<!-- eaadddd6d35c43ac87aa28c809889086&#45;&gt;a51ed29740254f5e8b41ecfcdf6f2b18 -->
<g id="edge5" class="edge">
<title>eaadddd6d35c43ac87aa28c809889086&#45;&gt;a51ed29740254f5e8b41ecfcdf6f2b18</title>
<path fill="none" stroke="#7b8894" d="M146,-2013.24C146,-2013.24 146,-1970.5 146,-1970.5"/>
<polygon fill="#7b8894" stroke="#7b8894" points="149.5,-1970.5 146,-1960.5 142.5,-1970.5 149.5,-1970.5"/>
</g>
<!-- 765567c9c0ed44729a3bb902c3c4173d -->
<g id="node7" class="node">
<title>765567c9c0ed44729a3bb902c3c4173d</title>
<image xlink:href="/Users/colin/.local/share/uv/default-env/lib/python3.12/site-packages/resources/generic/blank/blank.png" width="100.8px" height="100.8px" preserveAspectRatio="xMinYMin meet" x="95.6" y="-1707.15"/>
<text xml:space="preserve" text-anchor="middle" x="146" y="-1586.95" font-family="Sans-Serif" font-size="10.00" fill="#2d3436">Compile</text>
<text xml:space="preserve" text-anchor="middle" x="146" y="-1575.7" font-family="Sans-Serif" font-size="10.00" fill="#2d3436">Binary</text>
</g>
<!-- a51ed29740254f5e8b41ecfcdf6f2b18&#45;&gt;765567c9c0ed44729a3bb902c3c4173d -->
<g id="edge6" class="edge">
<title>a51ed29740254f5e8b41ecfcdf6f2b18&#45;&gt;765567c9c0ed44729a3bb902c3c4173d</title>
<path fill="none" stroke="#7b8894" d="M146,-1793.64C146,-1793.64 146,-1750.9 146,-1750.9"/>
<polygon fill="#7b8894" stroke="#7b8894" points="149.5,-1750.9 146,-1740.9 142.5,-1750.9 149.5,-1750.9"/>
</g>
<!-- 26705f629750406bae83c84db6d9cac6 -->
<g id="node8" class="node">
<title>26705f629750406bae83c84db6d9cac6</title>
<image xlink:href="/Users/colin/.local/share/uv/default-env/lib/python3.12/site-packages/resources/generic/blank/blank.png" width="100.8px" height="100.8px" preserveAspectRatio="xMinYMin meet" x="95.6" y="-1487.55"/>
<text xml:space="preserve" text-anchor="middle" x="146" y="-1367.35" font-family="Sans-Serif" font-size="10.00" fill="#2d3436">Test</text>
<text xml:space="preserve" text-anchor="middle" x="146" y="-1356.1" font-family="Sans-Serif" font-size="10.00" fill="#2d3436">Binary</text>
</g>
<!-- 765567c9c0ed44729a3bb902c3c4173d&#45;&gt;26705f629750406bae83c84db6d9cac6 -->
<g id="edge7" class="edge">
<title>765567c9c0ed44729a3bb902c3c4173d&#45;&gt;26705f629750406bae83c84db6d9cac6</title>
<path fill="none" stroke="#7b8894" d="M146,-1574.04C146,-1574.04 146,-1531.3 146,-1531.3"/>
<polygon fill="#7b8894" stroke="#7b8894" points="149.5,-1531.3 146,-1521.3 142.5,-1531.3 149.5,-1531.3"/>
</g>
<!-- 35c8af93b3c9470cbb25aa386cebe6c3 -->
<g id="node9" class="node">
<title>35c8af93b3c9470cbb25aa386cebe6c3</title>
<image xlink:href="/Users/colin/.local/share/uv/default-env/lib/python3.12/site-packages/resources/generic/blank/blank.png" width="100.8px" height="100.8px" preserveAspectRatio="xMinYMin meet" x="95.6" y="-1267.95"/>
<text xml:space="preserve" text-anchor="middle" x="146" y="-1147.75" font-family="Sans-Serif" font-size="10.00" fill="#2d3436">Package</text>
<text xml:space="preserve" text-anchor="middle" x="146" y="-1136.5" font-family="Sans-Serif" font-size="10.00" fill="#2d3436">Binary</text>
</g>
<!-- 26705f629750406bae83c84db6d9cac6&#45;&gt;35c8af93b3c9470cbb25aa386cebe6c3 -->
<g id="edge8" class="edge">
<title>26705f629750406bae83c84db6d9cac6&#45;&gt;35c8af93b3c9470cbb25aa386cebe6c3</title>
<path fill="none" stroke="#7b8894" d="M146,-1354.44C146,-1354.44 146,-1311.7 146,-1311.7"/>
<polygon fill="#7b8894" stroke="#7b8894" points="149.5,-1311.7 146,-1301.7 142.5,-1311.7 149.5,-1311.7"/>
</g>
<!-- 4dcdadb8e6b649a0a8183db17afc5467 -->
<g id="node10" class="node">
<title>4dcdadb8e6b649a0a8183db17afc5467</title>
<image xlink:href="/Users/colin/.local/share/uv/default-env/lib/python3.12/site-packages/resources/generic/blank/blank.png" width="100.8px" height="100.8px" preserveAspectRatio="xMinYMin meet" x="95.6" y="-1048.35"/>
<text xml:space="preserve" text-anchor="middle" x="146" y="-928.15" font-family="Sans-Serif" font-size="10.00" fill="#2d3436">Generate</text>
<text xml:space="preserve" text-anchor="middle" x="146" y="-916.9" font-family="Sans-Serif" font-size="10.00" fill="#2d3436">SHA256</text>
</g>
<!-- 35c8af93b3c9470cbb25aa386cebe6c3&#45;&gt;4dcdadb8e6b649a0a8183db17afc5467 -->
<g id="edge9" class="edge">
<title>35c8af93b3c9470cbb25aa386cebe6c3&#45;&gt;4dcdadb8e6b649a0a8183db17afc5467</title>
<path fill="none" stroke="#7b8894" d="M146,-1134.84C146,-1134.84 146,-1092.1 146,-1092.1"/>
<polygon fill="#7b8894" stroke="#7b8894" points="149.5,-1092.1 146,-1082.1 142.5,-1092.1 149.5,-1092.1"/>
</g>
<!-- 00d507c2055b42859f650e0590865b86 -->
<g id="node11" class="node">
<title>00d507c2055b42859f650e0590865b86</title>
<image xlink:href="/Users/colin/.local/share/uv/default-env/lib/python3.12/site-packages/resources/generic/blank/blank.png" width="100.8px" height="100.8px" preserveAspectRatio="xMinYMin meet" x="23.6" y="-828.75"/>
<text xml:space="preserve" text-anchor="middle" x="74" y="-708.55" font-family="Sans-Serif" font-size="10.00" fill="#2d3436">Upload</text>
<text xml:space="preserve" text-anchor="middle" x="74" y="-697.3" font-family="Sans-Serif" font-size="10.00" fill="#2d3436">Binary</text>
</g>
<!-- 4dcdadb8e6b649a0a8183db17afc5467&#45;&gt;00d507c2055b42859f650e0590865b86 -->
<g id="edge10" class="edge">
<title>4dcdadb8e6b649a0a8183db17afc5467&#45;&gt;00d507c2055b42859f650e0590865b86</title>
<path fill="none" stroke="#7b8894" d="M110,-915.24C110,-915.24 110,-872.5 110,-872.5"/>
<polygon fill="#7b8894" stroke="#7b8894" points="113.5,-872.5 110,-862.5 106.5,-872.5 113.5,-872.5"/>
</g>
<!-- abe6526b25924989ac7aea9c38941ee7 -->
<g id="node12" class="node">
<title>abe6526b25924989ac7aea9c38941ee7</title>
<image xlink:href="/Users/colin/.local/share/uv/default-env/lib/python3.12/site-packages/resources/generic/blank/blank.png" width="100.8px" height="100.8px" preserveAspectRatio="xMinYMin meet" x="167.6" y="-828.75"/>
<text xml:space="preserve" text-anchor="middle" x="218" y="-708.55" font-family="Sans-Serif" font-size="10.00" fill="#2d3436">Upload</text>
<text xml:space="preserve" text-anchor="middle" x="218" y="-697.3" font-family="Sans-Serif" font-size="10.00" fill="#2d3436">Checksum</text>
</g>
<!-- 4dcdadb8e6b649a0a8183db17afc5467&#45;&gt;abe6526b25924989ac7aea9c38941ee7 -->
<g id="edge11" class="edge">
<title>4dcdadb8e6b649a0a8183db17afc5467&#45;&gt;abe6526b25924989ac7aea9c38941ee7</title>
<path fill="none" stroke="#7b8894" d="M182,-915.24C182,-915.24 182,-872.5 182,-872.5"/>
<polygon fill="#7b8894" stroke="#7b8894" points="185.5,-872.5 182,-862.5 178.5,-872.5 185.5,-872.5"/>
</g>
<!-- 34198eae37284b51a0adf6e965343b0b -->
<g id="node13" class="node">
<title>34198eae37284b51a0adf6e965343b0b</title>
<image xlink:href="/Users/colin/.local/share/uv/default-env/lib/python3.12/site-packages/resources/onprem/ci/github-actions.png" width="100.8px" height="100.8px" preserveAspectRatio="xMinYMin meet" x="95.6" y="-609.15"/>
<text xml:space="preserve" text-anchor="middle" x="146" y="-488.95" font-family="Sans-Serif" font-size="10.00" fill="#2d3436">Create GitHub</text>
<text xml:space="preserve" text-anchor="middle" x="146" y="-477.7" font-family="Sans-Serif" font-size="10.00" fill="#2d3436">Release</text>
</g>
<!-- 00d507c2055b42859f650e0590865b86&#45;&gt;34198eae37284b51a0adf6e965343b0b -->
<g id="edge12" class="edge">
<title>00d507c2055b42859f650e0590865b86&#45;&gt;34198eae37284b51a0adf6e965343b0b</title>
<path fill="none" stroke="#7b8894" d="M110,-695.64C110,-695.64 110,-652.9 110,-652.9"/>
<polygon fill="#7b8894" stroke="#7b8894" points="113.5,-652.9 110,-642.9 106.5,-652.9 113.5,-652.9"/>
</g>
<!-- abe6526b25924989ac7aea9c38941ee7&#45;&gt;34198eae37284b51a0adf6e965343b0b -->
<g id="edge13" class="edge">
<title>abe6526b25924989ac7aea9c38941ee7&#45;&gt;34198eae37284b51a0adf6e965343b0b</title>
<path fill="none" stroke="#7b8894" d="M182,-695.64C182,-695.64 182,-652.9 182,-652.9"/>
<polygon fill="#7b8894" stroke="#7b8894" points="185.5,-652.9 182,-642.9 178.5,-652.9 185.5,-652.9"/>
</g>
<!-- dd1c764ff6e149ec96d26cd2cbc276b1 -->
<g id="node14" class="node">
<title>dd1c764ff6e149ec96d26cd2cbc276b1</title>
<image xlink:href="/Users/colin/.local/share/uv/default-env/lib/python3.12/site-packages/resources/generic/blank/blank.png" width="100.8px" height="100.8px" preserveAspectRatio="xMinYMin meet" x="95.6" y="-389.55"/>
<text xml:space="preserve" text-anchor="middle" x="146" y="-269.35" font-family="Sans-Serif" font-size="10.00" fill="#2d3436">Attach All</text>
<text xml:space="preserve" text-anchor="middle" x="146" y="-258.1" font-family="Sans-Serif" font-size="10.00" fill="#2d3436">Artifacts</text>
</g>
<!-- 34198eae37284b51a0adf6e965343b0b&#45;&gt;dd1c764ff6e149ec96d26cd2cbc276b1 -->
<g id="edge14" class="edge">
<title>34198eae37284b51a0adf6e965343b0b&#45;&gt;dd1c764ff6e149ec96d26cd2cbc276b1</title>
<path fill="none" stroke="#7b8894" d="M146,-476.04C146,-476.04 146,-433.3 146,-433.3"/>
<polygon fill="#7b8894" stroke="#7b8894" points="149.5,-433.3 146,-423.3 142.5,-433.3 149.5,-433.3"/>
</g>
<!-- cef4d7e06ede445e80f9f151fa87fd31 -->
<g id="node15" class="node">
<title>cef4d7e06ede445e80f9f151fa87fd31</title>
<image xlink:href="/Users/colin/.local/share/uv/default-env/lib/python3.12/site-packages/resources/onprem/vcs/github.png" width="100.8px" height="100.8px" preserveAspectRatio="xMinYMin meet" x="95.6" y="-169.95"/>
<text xml:space="preserve" text-anchor="middle" x="146" y="-49.75" font-family="Sans-Serif" font-size="10.00" fill="#2d3436">Publish</text>
<text xml:space="preserve" text-anchor="middle" x="146" y="-38.5" font-family="Sans-Serif" font-size="10.00" fill="#2d3436">Release</text>
</g>
<!-- dd1c764ff6e149ec96d26cd2cbc276b1&#45;&gt;cef4d7e06ede445e80f9f151fa87fd31 -->
<g id="edge15" class="edge">
<title>dd1c764ff6e149ec96d26cd2cbc276b1&#45;&gt;cef4d7e06ede445e80f9f151fa87fd31</title>
<path fill="none" stroke="#7b8894" d="M146,-256.44C146,-256.44 146,-213.7 146,-213.7"/>
<polygon fill="#7b8894" stroke="#7b8894" points="149.5,-213.7 146,-203.7 142.5,-213.7 149.5,-213.7"/>
</g>
</g>
</svg>
