<?xml version="1.0" encoding="UTF-8" standalone="no"?>
<!DOCTYPE svg PUBLIC "-//W3C//DTD SVG 1.1//EN"
 "http://www.w3.org/Graphics/SVG/1.1/DTD/svg11.dtd">
<!-- Generated by graphviz version 14.0.2 (20251019.1705)
 -->
<!-- Title: Root Release Workflow Pages: 1 -->
<svg width="241pt" height="2230pt"
 viewBox="0.00 0.00 241.00 2230.00" xmlns="http://www.w3.org/2000/svg" xmlns:xlink="http://www.w3.org/1999/xlink">
<g id="graph0" class="graph" transform="scale(1 1) rotate(0) translate(36 2193.95)">
<title>Root Release Workflow</title>
<polygon fill="white" stroke="none" points="-36,36 -36,-2193.95 205,-2193.95 205,36 -36,36"/>
<text xml:space="preserve" text-anchor="middle" x="84.5" y="-5.35" font-family="Sans-Serif" font-size="12.00" fill="#2d3436">Root Release Workflow</text>
<g id="clust1" class="cluster">
<title>cluster_Release Pipeline</title>
<path fill="#e5f5fd" stroke="#aeb6be" d="M20,-28.75C20,-28.75 149,-28.75 149,-28.75 155,-28.75 161,-34.75 161,-40.75 161,-40.75 161,-1955.1 161,-1955.1 161,-1961.1 155,-1967.1 149,-1967.1 149,-1967.1 20,-1967.1 20,-1967.1 14,-1967.1 8,-1961.1 8,-1955.1 8,-1955.1 8,-40.75 8,-40.75 8,-34.75 14,-28.75 20,-28.75"/>
<text xml:space="preserve" text-anchor="middle" x="62.12" y="-1951.7" font-family="Sans-Serif" font-size="12.00" fill="#2d3436">Release Pipeline</text>
</g>
<g id="clust2" class="cluster">
<title>cluster_Build &amp; Release Steps</title>
<path fill="#ebf3e7" stroke="#aeb6be" d="M28,-36.75C28,-36.75 141,-36.75 141,-36.75 147,-36.75 153,-42.75 153,-48.75 153,-48.75 153,-1764.3 153,-1764.3 153,-1770.3 147,-1776.3 141,-1776.3 141,-1776.3 28,-1776.3 28,-1776.3 22,-1776.3 16,-1770.3 16,-1764.3 16,-1764.3 16,-48.75 16,-48.75 16,-42.75 22,-36.75 28,-36.75"/>
<text xml:space="preserve" text-anchor="middle" x="84.38" y="-1760.9" font-family="Sans-Serif" font-size="12.00" fill="#2d3436">Build &amp; Release Steps</text>
</g>
<!-- 17fde9640b404165a6c3591afc1ea7c5 -->
<g id="node1" class="node">
<title>17fde9640b404165a6c3591afc1ea7c5</title>
<image xlink:href="/Users/colin/.local/share/uv/default-env/lib/python3.12/site-packages/resources/onprem/vcs/github.png" width="100.8px" height="100.8px" preserveAspectRatio="xMinYMin meet" x="33.6" y="-2125.55"/>
<text xml:space="preserve" text-anchor="middle" x="84" y="-2005.35" font-family="Sans-Serif" font-size="10.00" fill="#2d3436">Push Tag</text>
<text xml:space="preserve" text-anchor="middle" x="84" y="-1994.1" font-family="Sans-Serif" font-size="10.00" fill="#2d3436">v*.*.*</text>
</g>
<!-- d189ae191fde41eeaa2d02cbb1e28eaa -->
<g id="node2" class="node">
<title>d189ae191fde41eeaa2d02cbb1e28eaa</title>
<image xlink:href="/Users/colin/.local/share/uv/default-env/lib/python3.12/site-packages/resources/onprem/ci/github-actions.png" width="100.8px" height="100.8px" preserveAspectRatio="xMinYMin meet" x="33.6" y="-1920.35"/>
<text xml:space="preserve" text-anchor="middle" x="84" y="-1803.3" font-family="Sans-Serif" font-size="10.00" fill="#2d3436">Release Job</text>
</g>
<!-- 17fde9640b404165a6c3591afc1ea7c5&#45;&gt;d189ae191fde41eeaa2d02cbb1e28eaa -->
<g id="edge1" class="edge">
<title>17fde9640b404165a6c3591afc1ea7c5&#45;&gt;d189ae191fde41eeaa2d02cbb1e28eaa</title>
<path fill="none" stroke="#7b8894" d="M84,-1992.57C84,-1992.57 84,-1949.74 84,-1949.74"/>
<polygon fill="#7b8894" stroke="#7b8894" points="87.5,-1949.74 84,-1939.74 80.5,-1949.74 87.5,-1949.74"/>
</g>
<!-- d657b7b796cd4ed990578e079a68c70c -->
<g id="node3" class="node">
<title>d657b7b796cd4ed990578e079a68c70c</title>
<image xlink:href="/Users/colin/.local/share/uv/default-env/lib/python3.12/site-packages/resources/generic/blank/blank.png" width="100.8px" height="100.8px" preserveAspectRatio="xMinYMin meet" x="33.6" y="-1715.15"/>
<text xml:space="preserve" text-anchor="middle" x="84" y="-1594.95" font-family="Sans-Serif" font-size="10.00" fill="#2d3436">Checkout</text>
<text xml:space="preserve" text-anchor="middle" x="84" y="-1583.7" font-family="Sans-Serif" font-size="10.00" fill="#2d3436">Code</text>
</g>
<!-- d189ae191fde41eeaa2d02cbb1e28eaa&#45;&gt;d657b7b796cd4ed990578e079a68c70c -->
<g id="edge2" class="edge">
<title>d189ae191fde41eeaa2d02cbb1e28eaa&#45;&gt;d657b7b796cd4ed990578e079a68c70c</title>
<path fill="none" stroke="#7b8894" d="M84,-1801.62C84,-1801.62 84,-1758.91 84,-1758.91"/>
<polygon fill="#7b8894" stroke="#7b8894" points="87.5,-1758.91 84,-1748.91 80.5,-1758.91 87.5,-1758.91"/>
</g>
<!-- 0ad14c3491fa4e2288176fd772eb13e6 -->
<g id="node4" class="node">
<title>0ad14c3491fa4e2288176fd772eb13e6</title>
<image xlink:href="/Users/colin/.local/share/uv/default-env/lib/python3.12/site-packages/resources/generic/blank/blank.png" width="100.8px" height="100.8px" preserveAspectRatio="xMinYMin meet" x="33.6" y="-1495.55"/>
<text xml:space="preserve" text-anchor="middle" x="84" y="-1375.35" font-family="Sans-Serif" font-size="10.00" fill="#2d3436">Setup</text>
<text xml:space="preserve" text-anchor="middle" x="84" y="-1364.1" font-family="Sans-Serif" font-size="10.00" fill="#2d3436">Node.js 20</text>
</g>
<!-- d657b7b796cd4ed990578e079a68c70c&#45;&gt;0ad14c3491fa4e2288176fd772eb13e6 -->
<g id="edge3" class="edge">
<title>d657b7b796cd4ed990578e079a68c70c&#45;&gt;0ad14c3491fa4e2288176fd772eb13e6</title>
<path fill="none" stroke="#7b8894" d="M84,-1582.04C84,-1582.04 84,-1539.3 84,-1539.3"/>
<polygon fill="#7b8894" stroke="#7b8894" points="87.5,-1539.3 84,-1529.3 80.5,-1539.3 87.5,-1539.3"/>
</g>
<!-- 000bec26511740a0a43d0941e12e2335 -->
<g id="node5" class="node">
<title>000bec26511740a0a43d0941e12e2335</title>
<image xlink:href="/Users/colin/.local/share/uv/default-env/lib/python3.12/site-packages/resources/generic/blank/blank.png" width="100.8px" height="100.8px" preserveAspectRatio="xMinYMin meet" x="33.6" y="-1275.95"/>
<text xml:space="preserve" text-anchor="middle" x="84" y="-1155.75" font-family="Sans-Serif" font-size="10.00" fill="#2d3436">Install</text>
<text xml:space="preserve" text-anchor="middle" x="84" y="-1144.5" font-family="Sans-Serif" font-size="10.00" fill="#2d3436">Dependencies</text>
</g>
<!-- 0ad14c3491fa4e2288176fd772eb13e6&#45;&gt;000bec26511740a0a43d0941e12e2335 -->
<g id="edge4" class="edge">
<title>0ad14c3491fa4e2288176fd772eb13e6&#45;&gt;000bec26511740a0a43d0941e12e2335</title>
<path fill="none" stroke="#7b8894" d="M84,-1362.44C84,-1362.44 84,-1319.7 84,-1319.7"/>
<polygon fill="#7b8894" stroke="#7b8894" points="87.5,-1319.7 84,-1309.7 80.5,-1319.7 87.5,-1319.7"/>
</g>
<!-- 2112b6ca966f496a8bdf787320e832e7 -->
<g id="node6" class="node">
<title>2112b6ca966f496a8bdf787320e832e7</title>
<image xlink:href="/Users/colin/.local/share/uv/default-env/lib/python3.12/site-packages/resources/generic/blank/blank.png" width="100.8px" height="100.8px" preserveAspectRatio="xMinYMin meet" x="33.6" y="-1056.35"/>
<text xml:space="preserve" text-anchor="middle" x="84" y="-936.15" font-family="Sans-Serif" font-size="10.00" fill="#2d3436">Run</text>
<text xml:space="preserve" text-anchor="middle" x="84" y="-924.9" font-family="Sans-Serif" font-size="10.00" fill="#2d3436">Tests</text>
</g>
<!-- 000bec26511740a0a43d0941e12e2335&#45;&gt;2112b6ca966f496a8bdf787320e832e7 -->
<g id="edge5" class="edge">
<title>000bec26511740a0a43d0941e12e2335&#45;&gt;2112b6ca966f496a8bdf787320e832e7</title>
<path fill="none" stroke="#7b8894" d="M84,-1142.84C84,-1142.84 84,-1100.1 84,-1100.1"/>
<polygon fill="#7b8894" stroke="#7b8894" points="87.5,-1100.1 84,-1090.1 80.5,-1100.1 87.5,-1100.1"/>
</g>
<!-- 3a688f7e9ce145278446f7e117acb4dd -->
<g id="node7" class="node">
<title>3a688f7e9ce145278446f7e117acb4dd</title>
<image xlink:href="/Users/colin/.local/share/uv/default-env/lib/python3.12/site-packages/resources/generic/blank/blank.png" width="100.8px" height="100.8px" preserveAspectRatio="xMinYMin meet" x="33.6" y="-836.75"/>
<text xml:space="preserve" text-anchor="middle" x="84" y="-716.55" font-family="Sans-Serif" font-size="10.00" fill="#2d3436">Build</text>
<text xml:space="preserve" text-anchor="middle" x="84" y="-705.3" font-family="Sans-Serif" font-size="10.00" fill="#2d3436">Packages</text>
</g>
<!-- 2112b6ca966f496a8bdf787320e832e7&#45;&gt;3a688f7e9ce145278446f7e117acb4dd -->
<g id="edge6" class="edge">
<title>2112b6ca966f496a8bdf787320e832e7&#45;&gt;3a688f7e9ce145278446f7e117acb4dd</title>
<path fill="none" stroke="#7b8894" d="M84,-923.24C84,-923.24 84,-880.5 84,-880.5"/>
<polygon fill="#7b8894" stroke="#7b8894" points="87.5,-880.5 84,-870.5 80.5,-880.5 87.5,-880.5"/>
</g>
<!-- e9b9cda9da3b48f38ba83949d92790bd -->
<g id="node8" class="node">
<title>e9b9cda9da3b48f38ba83949d92790bd</title>
<image xlink:href="/Users/colin/.local/share/uv/default-env/lib/python3.12/site-packages/resources/generic/blank/blank.png" width="100.8px" height="100.8px" preserveAspectRatio="xMinYMin meet" x="33.6" y="-617.15"/>
<text xml:space="preserve" text-anchor="middle" x="84" y="-496.95" font-family="Sans-Serif" font-size="10.00" fill="#2d3436">Extract Tag</text>
<text xml:space="preserve" text-anchor="middle" x="84" y="-485.7" font-family="Sans-Serif" font-size="10.00" fill="#2d3436">Info</text>
</g>
<!-- 3a688f7e9ce145278446f7e117acb4dd&#45;&gt;e9b9cda9da3b48f38ba83949d92790bd -->
<g id="edge7" class="edge">
<title>3a688f7e9ce145278446f7e117acb4dd&#45;&gt;e9b9cda9da3b48f38ba83949d92790bd</title>
<path fill="none" stroke="#7b8894" d="M84,-703.64C84,-703.64 84,-660.9 84,-660.9"/>
<polygon fill="#7b8894" stroke="#7b8894" points="87.5,-660.9 84,-650.9 80.5,-660.9 87.5,-660.9"/>
</g>
<!-- 5788ce43cf964321b4e2e6d2eac88845 -->
<g id="node9" class="node">
<title>5788ce43cf964321b4e2e6d2eac88845</title>
<image xlink:href="/Users/colin/.local/share/uv/default-env/lib/python3.12/site-packages/resources/generic/blank/blank.png" width="100.8px" height="100.8px" preserveAspectRatio="xMinYMin meet" x="33.6" y="-397.55"/>
<text xml:space="preserve" text-anchor="middle" x="84" y="-277.35" font-family="Sans-Serif" font-size="10.00" fill="#2d3436">Create GitHub</text>
<text xml:space="preserve" text-anchor="middle" x="84" y="-266.1" font-family="Sans-Serif" font-size="10.00" fill="#2d3436">Release</text>
</g>
<!-- e9b9cda9da3b48f38ba83949d92790bd&#45;&gt;5788ce43cf964321b4e2e6d2eac88845 -->
<g id="edge8" class="edge">
<title>e9b9cda9da3b48f38ba83949d92790bd&#45;&gt;5788ce43cf964321b4e2e6d2eac88845</title>
<path fill="none" stroke="#7b8894" d="M84,-484.04C84,-484.04 84,-441.3 84,-441.3"/>
<polygon fill="#7b8894" stroke="#7b8894" points="87.5,-441.3 84,-431.3 80.5,-441.3 87.5,-441.3"/>
</g>
<!-- d77114e042a64bb4a5f76ff37a74bfc9 -->
<g id="node10" class="node">
<title>d77114e042a64bb4a5f76ff37a74bfc9</title>
<image xlink:href="/Users/colin/.local/share/uv/default-env/lib/python3.12/site-packages/resources/generic/blank/blank.png" width="100.8px" height="100.8px" preserveAspectRatio="xMinYMin meet" x="33.6" y="-177.95"/>
<text xml:space="preserve" text-anchor="middle" x="84" y="-57.75" font-family="Sans-Serif" font-size="10.00" fill="#2d3436">Publish to</text>
<text xml:space="preserve" text-anchor="middle" x="84" y="-46.5" font-family="Sans-Serif" font-size="10.00" fill="#2d3436">npm (optional)</text>
</g>
<!-- 5788ce43cf964321b4e2e6d2eac88845&#45;&gt;d77114e042a64bb4a5f76ff37a74bfc9 -->
<g id="edge9" class="edge">
<title>5788ce43cf964321b4e2e6d2eac88845&#45;&gt;d77114e042a64bb4a5f76ff37a74bfc9</title>
<path fill="none" stroke="#7b8894" d="M84,-264.44C84,-264.44 84,-221.7 84,-221.7"/>
<polygon fill="#7b8894" stroke="#7b8894" points="87.5,-221.7 84,-211.7 80.5,-221.7 87.5,-221.7"/>
</g>
</g>
</svg>
